<svg xmlns="http://www.w3.org/2000/svg" xmlns:xlink="http://www.w3.org/1999/xlink" width="283" zoomAndPan="magnify" viewBox="0 0 212.25 202.499993" height="270" preserveAspectRatio="xMidYMid meet" version="1.2"><defs/><g id="c459826bc8"><g style="fill:#171616;fill-opacity:1;"><g transform="translate(64.485211, 85.047701)"><path style="stroke:none" d="M -5.625 8.84375 C -5.957031 5.757812 -5.601562 3.128906 -4.5625 0.953125 C -3.53125 -1.222656 -1.992188 -3.015625 0.046875 -4.421875 C 2.097656 -5.828125 4.507812 -6.890625 7.28125 -7.609375 C 10.0625 -8.335938 13.050781 -8.796875 16.25 -8.984375 C 19.445312 -9.179688 22.6875 -9.164062 25.96875 -8.9375 C 25.96875 -9.601562 25.945312 -10.273438 25.90625 -10.953125 C 25.875 -11.628906 25.835938 -12.347656 25.796875 -13.109375 C 25.609375 -15.171875 25.128906 -17.21875 24.359375 -19.25 C 23.597656 -21.28125 22.625 -23.117188 21.4375 -24.765625 C 20.257812 -26.421875 18.925781 -27.707031 17.4375 -28.625 C 15.957031 -29.539062 14.410156 -29.910156 12.796875 -29.734375 C 10.941406 -29.535156 9.476562 -28.9375 8.40625 -27.9375 C 7.332031 -26.9375 6.875 -25.703125 7.03125 -24.234375 C 7.1875 -22.859375 7.898438 -21.78125 9.171875 -21 C 10.441406 -20.21875 12.003906 -19.925781 13.859375 -20.125 C 15.003906 -20.257812 16.164062 -20.585938 17.34375 -21.109375 C 18.53125 -21.640625 19.679688 -22.289062 20.796875 -23.0625 C 21.523438 -21.894531 22.164062 -20.59375 22.71875 -19.15625 C 23.269531 -17.71875 23.695312 -16.234375 24 -14.703125 C 22.476562 -13.898438 20.867188 -13.234375 19.171875 -12.703125 C 17.472656 -12.171875 15.914062 -11.828125 14.5 -11.671875 C 11.457031 -11.335938 8.671875 -11.648438 6.140625 -12.609375 C 3.609375 -13.578125 1.539062 -14.976562 -0.0625 -16.8125 C -1.664062 -18.65625 -2.597656 -20.765625 -2.859375 -23.140625 C -3.117188 -25.515625 -2.671875 -27.785156 -1.515625 -29.953125 C -0.359375 -32.117188 1.347656 -33.945312 3.609375 -35.4375 C 5.867188 -36.925781 8.519531 -37.835938 11.5625 -38.171875 C 14.71875 -38.523438 17.664062 -38.242188 20.40625 -37.328125 C 23.15625 -36.410156 25.582031 -34.785156 27.6875 -32.453125 C 28.269531 -34.035156 28.660156 -35.726562 28.859375 -37.53125 C 29.054688 -39.34375 29.039062 -41.28125 28.8125 -43.34375 L 41.4375 -44.734375 C 41.988281 -39.773438 41.554688 -35.359375 40.140625 -31.484375 C 38.722656 -27.609375 36.554688 -24.234375 33.640625 -21.359375 C 34.242188 -19.210938 34.675781 -16.9375 34.9375 -14.53125 C 35.457031 -9.875 35.460938 -5.46875 34.953125 -1.3125 C 34.453125 2.84375 33.382812 6.5625 31.75 9.84375 C 30.113281 13.125 27.847656 15.789062 24.953125 17.84375 C 22.054688 19.90625 18.472656 21.171875 14.203125 21.640625 C 10.453125 22.054688 7.144531 21.773438 4.28125 20.796875 C 1.414062 19.816406 -0.867188 18.28125 -2.578125 16.1875 C -4.296875 14.09375 -5.3125 11.644531 -5.625 8.84375 Z M 36.0625 3.34375 C 36.445312 1.695312 36.722656 0.015625 36.890625 -1.703125 C 37.066406 -3.421875 37.144531 -5.203125 37.125 -7.046875 C 40.175781 -6.335938 43.332031 -5.3125 46.59375 -3.96875 C 49.863281 -2.625 53.226562 -0.96875 56.6875 1 L 58.484375 17.25 C 53.796875 13.84375 49.632812 11.007812 46 8.75 C 42.375 6.488281 39.0625 4.6875 36.0625 3.34375 Z M 4.546875 6.9375 C 4.742188 8.71875 5.507812 10.125 6.84375 11.15625 C 8.175781 12.1875 10.304688 12.539062 13.234375 12.21875 C 16.160156 11.894531 18.65625 10.585938 20.71875 8.296875 C 22.78125 6.003906 24.191406 3.222656 24.953125 -0.046875 C 22.679688 -0.398438 20.316406 -0.554688 17.859375 -0.515625 C 15.410156 -0.484375 13.140625 -0.226562 11.046875 0.25 C 8.953125 0.738281 7.296875 1.53125 6.078125 2.625 C 4.859375 3.726562 4.347656 5.164062 4.546875 6.9375 Z M 4.546875 6.9375 "/></g></g><g style="fill:#171616;fill-opacity:1;"><g transform="translate(106.718071, 80.380409)"><path style="stroke:none" d="M 21.90625 -30.328125 C 24.5625 -30.617188 26.742188 -29.988281 28.453125 -28.4375 C 30.171875 -26.882812 31.398438 -24.695312 32.140625 -21.875 C 32.890625 -19.0625 33.125 -15.878906 32.84375 -12.328125 L 21.515625 -11.078125 C 21.765625 -12.867188 21.828125 -14.457031 21.703125 -15.84375 C 21.585938 -17.226562 21.25 -18.296875 20.6875 -19.046875 C 20.125 -19.804688 19.25 -20.125 18.0625 -20 C 16.40625 -19.8125 15.019531 -19.046875 13.90625 -17.703125 C 12.800781 -16.359375 12.019531 -14.679688 11.5625 -12.671875 C 11.101562 -10.660156 11.050781 -8.578125 11.40625 -6.421875 C 12.019531 -4.484375 12.78125 -2.503906 13.6875 -0.484375 L 4.90625 0.484375 C 2.5 -4.691406 0.769531 -9.703125 -0.28125 -14.546875 C -1.34375 -19.398438 -1.664062 -24.101562 -1.25 -28.65625 L 10.265625 -29.9375 C 9.890625 -28.53125 9.613281 -27.066406 9.4375 -25.546875 C 9.257812 -24.023438 9.164062 -22.460938 9.15625 -20.859375 C 10.15625 -23.335938 11.675781 -25.46875 13.71875 -27.25 C 15.769531 -29.03125 18.5 -30.054688 21.90625 -30.328125 Z M 21.90625 -30.328125 "/></g></g><g style="fill:#7ed957;fill-opacity:1;"><g transform="translate(72.705157, 134.985202)"><path style="stroke:none" d="M 16.015625 -38.5 C 19.335938 -38.863281 22.109375 -38.59375 24.328125 -37.6875 C 26.546875 -36.789062 28.265625 -35.472656 29.484375 -33.734375 C 30.703125 -31.992188 31.4375 -29.976562 31.6875 -27.6875 C 31.976562 -25.070312 31.601562 -22.816406 30.5625 -20.921875 C 29.53125 -19.035156 28.015625 -17.445312 26.015625 -16.15625 C 24.023438 -14.875 21.722656 -13.847656 19.109375 -13.078125 C 16.492188 -12.316406 13.757812 -11.78125 10.90625 -11.46875 C 9.039062 -11.257812 7.132812 -11.125 5.1875 -11.0625 C 3.238281 -11.007812 1.300781 -11.019531 -0.625 -11.09375 L -1.75 -21.234375 C -1.175781 -21.128906 -0.613281 -21.035156 -0.0625 -20.953125 C 0.488281 -20.878906 1.0625 -20.816406 1.65625 -20.765625 C 1.507812 -23.867188 2.03125 -26.691406 3.21875 -29.234375 C 4.40625 -31.785156 6.09375 -33.882812 8.28125 -35.53125 C 10.476562 -37.175781 13.054688 -38.164062 16.015625 -38.5 Z M 13.828125 -20.421875 C 15.410156 -20.597656 16.832031 -20.914062 18.09375 -21.375 C 19.363281 -21.832031 20.363281 -22.472656 21.09375 -23.296875 C 21.820312 -24.117188 22.117188 -25.144531 21.984375 -26.375 C 21.847656 -27.59375 21.222656 -28.53125 20.109375 -29.1875 C 19.003906 -29.84375 17.773438 -30.097656 16.421875 -29.953125 C 15.078125 -29.804688 13.945312 -29.269531 13.03125 -28.34375 C 12.113281 -27.425781 11.457031 -26.328125 11.0625 -25.046875 C 10.664062 -23.765625 10.535156 -22.488281 10.671875 -21.21875 C 10.691406 -21.0625 10.707031 -20.90625 10.71875 -20.75 C 10.738281 -20.59375 10.78125 -20.414062 10.84375 -20.21875 C 11.375 -20.238281 11.882812 -20.265625 12.375 -20.296875 C 12.863281 -20.328125 13.347656 -20.367188 13.828125 -20.421875 Z M 13.25 -10.421875 C 14.945312 -8.441406 16.96875 -6.878906 19.3125 -5.734375 C 21.664062 -4.585938 24.101562 -4 26.625 -3.96875 L 27.90625 7.59375 C 24.175781 7.601562 20.675781 6.835938 17.40625 5.296875 C 14.144531 3.765625 11.304688 1.679688 8.890625 -0.953125 C 6.484375 -3.585938 4.632812 -6.53125 3.34375 -9.78125 C 4.945312 -9.757812 6.273438 -9.757812 7.328125 -9.78125 C 8.390625 -9.800781 9.378906 -9.863281 10.296875 -9.96875 C 10.765625 -10.019531 11.242188 -10.082031 11.734375 -10.15625 C 12.234375 -10.226562 12.738281 -10.316406 13.25 -10.421875 Z M 13.25 -10.421875 "/></g></g><g style="fill:#171616;fill-opacity:1;"><g transform="translate(108.286453, 131.052997)"><path style="stroke:none" d="M 22.203125 -30.359375 C 24.816406 -30.640625 26.914062 -30.097656 28.5 -28.734375 C 30.09375 -27.367188 31.207031 -25.410156 31.84375 -22.859375 C 32.488281 -20.316406 32.679688 -17.390625 32.421875 -14.078125 C 32.171875 -10.773438 31.492188 -7.3125 30.390625 -3.6875 C 29.296875 -0.0703125 27.820312 3.476562 25.96875 6.96875 L 13.84375 8.4375 C 14.789062 6.6875 15.71875 4.75 16.625 2.625 C 17.539062 0.507812 18.367188 -1.625 19.109375 -3.78125 C 19.859375 -5.945312 20.441406 -8.023438 20.859375 -10.015625 C 21.273438 -12.003906 21.476562 -13.773438 21.46875 -15.328125 C 21.457031 -16.890625 21.164062 -18.085938 20.59375 -18.921875 C 20.019531 -19.753906 19.078125 -20.101562 17.765625 -19.96875 C 15.441406 -19.707031 13.671875 -18.640625 12.453125 -16.765625 C 11.242188 -14.890625 10.738281 -12.664062 10.9375 -10.09375 C 11.269531 -8.914062 11.632812 -7.722656 12.03125 -6.515625 C 12.425781 -5.304688 12.890625 -4.085938 13.421875 -2.859375 L 4.21875 -1.84375 C 1.96875 -7.03125 0.410156 -11.851562 -0.453125 -16.3125 C -1.316406 -20.78125 -1.453125 -25.3125 -0.859375 -29.90625 L 11.171875 -31.234375 C 10.804688 -29.953125 10.5 -28.625 10.25 -27.25 C 10 -25.882812 9.8125 -24.503906 9.6875 -23.109375 C 10.820312 -25.023438 12.398438 -26.644531 14.421875 -27.96875 C 16.441406 -29.289062 19.035156 -30.085938 22.203125 -30.359375 Z M 22.203125 -30.359375 "/></g></g><g style="fill:#171616;fill-opacity:1;"><g transform="translate(64.485211, 85.047701)"><path style="stroke:none" d="M -5.625 8.84375 C -5.957031 5.757812 -5.601562 3.128906 -4.5625 0.953125 C -3.53125 -1.222656 -1.992188 -3.015625 0.046875 -4.421875 C 2.097656 -5.828125 4.507812 -6.890625 7.28125 -7.609375 C 10.0625 -8.335938 13.050781 -8.796875 16.25 -8.984375 C 19.445312 -9.179688 22.6875 -9.164062 25.96875 -8.9375 C 25.96875 -9.601562 25.945312 -10.273438 25.90625 -10.953125 C 25.875 -11.628906 25.835938 -12.347656 25.796875 -13.109375 C 25.609375 -15.171875 25.128906 -17.21875 24.359375 -19.25 C 23.597656 -21.28125 22.625 -23.117188 21.4375 -24.765625 C 20.257812 -26.421875 18.925781 -27.707031 17.4375 -28.625 C 15.957031 -29.539062 14.410156 -29.910156 12.796875 -29.734375 C 10.941406 -29.535156 9.476562 -28.9375 8.40625 -27.9375 C 7.332031 -26.9375 6.875 -25.703125 7.03125 -24.234375 C 7.1875 -22.859375 7.898438 -21.78125 9.171875 -21 C 10.441406 -20.21875 12.003906 -19.925781 13.859375 -20.125 C 15.003906 -20.257812 16.164062 -20.585938 17.34375 -21.109375 C 18.53125 -21.640625 19.679688 -22.289062 20.796875 -23.0625 C 21.523438 -21.894531 22.164062 -20.59375 22.71875 -19.15625 C 23.269531 -17.71875 23.695312 -16.234375 24 -14.703125 C 22.476562 -13.898438 20.867188 -13.234375 19.171875 -12.703125 C 17.472656 -12.171875 15.914062 -11.828125 14.5 -11.671875 C 11.457031 -11.335938 8.671875 -11.648438 6.140625 -12.609375 C 3.609375 -13.578125 1.539062 -14.976562 -0.0625 -16.8125 C -1.664062 -18.65625 -2.597656 -20.765625 -2.859375 -23.140625 C -3.117188 -25.515625 -2.671875 -27.785156 -1.515625 -29.953125 C -0.359375 -32.117188 1.347656 -33.945312 3.609375 -35.4375 C 5.867188 -36.925781 8.519531 -37.835938 11.5625 -38.171875 C 14.71875 -38.523438 17.664062 -38.242188 20.40625 -37.328125 C 23.15625 -36.410156 25.582031 -34.785156 27.6875 -32.453125 C 28.269531 -34.035156 28.660156 -35.726562 28.859375 -37.53125 C 29.054688 -39.34375 29.039062 -41.28125 28.8125 -43.34375 L 41.4375 -44.734375 C 41.988281 -39.773438 41.554688 -35.359375 40.140625 -31.484375 C 38.722656 -27.609375 36.554688 -24.234375 33.640625 -21.359375 C 34.242188 -19.210938 34.675781 -16.9375 34.9375 -14.53125 C 35.457031 -9.875 35.460938 -5.46875 34.953125 -1.3125 C 34.453125 2.84375 33.382812 6.5625 31.75 9.84375 C 30.113281 13.125 27.847656 15.789062 24.953125 17.84375 C 22.054688 19.90625 18.472656 21.171875 14.203125 21.640625 C 10.453125 22.054688 7.144531 21.773438 4.28125 20.796875 C 1.414062 19.816406 -0.867188 18.28125 -2.578125 16.1875 C -4.296875 14.09375 -5.3125 11.644531 -5.625 8.84375 Z M 36.0625 3.34375 C 36.445312 1.695312 36.722656 0.015625 36.890625 -1.703125 C 37.066406 -3.421875 37.144531 -5.203125 37.125 -7.046875 C 40.175781 -6.335938 43.332031 -5.3125 46.59375 -3.96875 C 49.863281 -2.625 53.226562 -0.96875 56.6875 1 L 58.484375 17.25 C 53.796875 13.84375 49.632812 11.007812 46 8.75 C 42.375 6.488281 39.0625 4.6875 36.0625 3.34375 Z M 4.546875 6.9375 C 4.742188 8.71875 5.507812 10.125 6.84375 11.15625 C 8.175781 12.1875 10.304688 12.539062 13.234375 12.21875 C 16.160156 11.894531 18.65625 10.585938 20.71875 8.296875 C 22.78125 6.003906 24.191406 3.222656 24.953125 -0.046875 C 22.679688 -0.398438 20.316406 -0.554688 17.859375 -0.515625 C 15.410156 -0.484375 13.140625 -0.226562 11.046875 0.25 C 8.953125 0.738281 7.296875 1.53125 6.078125 2.625 C 4.859375 3.726562 4.347656 5.164062 4.546875 6.9375 Z M 4.546875 6.9375 "/></g></g><g style="fill:#171616;fill-opacity:1;"><g transform="translate(106.718071, 80.380409)"><path style="stroke:none" d="M 21.90625 -30.328125 C 24.5625 -30.617188 26.742188 -29.988281 28.453125 -28.4375 C 30.171875 -26.882812 31.398438 -24.695312 32.140625 -21.875 C 32.890625 -19.0625 33.125 -15.878906 32.84375 -12.328125 L 21.515625 -11.078125 C 21.765625 -12.867188 21.828125 -14.457031 21.703125 -15.84375 C 21.585938 -17.226562 21.25 -18.296875 20.6875 -19.046875 C 20.125 -19.804688 19.25 -20.125 18.0625 -20 C 16.40625 -19.8125 15.019531 -19.046875 13.90625 -17.703125 C 12.800781 -16.359375 12.019531 -14.679688 11.5625 -12.671875 C 11.101562 -10.660156 11.050781 -8.578125 11.40625 -6.421875 C 12.019531 -4.484375 12.78125 -2.503906 13.6875 -0.484375 L 4.90625 0.484375 C 2.5 -4.691406 0.769531 -9.703125 -0.28125 -14.546875 C -1.34375 -19.398438 -1.664062 -24.101562 -1.25 -28.65625 L 10.265625 -29.9375 C 9.890625 -28.53125 9.613281 -27.066406 9.4375 -25.546875 C 9.257812 -24.023438 9.164062 -22.460938 9.15625 -20.859375 C 10.15625 -23.335938 11.675781 -25.46875 13.71875 -27.25 C 15.769531 -29.03125 18.5 -30.054688 21.90625 -30.328125 Z M 21.90625 -30.328125 "/></g></g><g style="fill:#7ed957;fill-opacity:1;"><g transform="translate(72.705157, 134.985202)"><path style="stroke:none" d="M 16.015625 -38.5 C 19.335938 -38.863281 22.109375 -38.59375 24.328125 -37.6875 C 26.546875 -36.789062 28.265625 -35.472656 29.484375 -33.734375 C 30.703125 -31.992188 31.4375 -29.976562 31.6875 -27.6875 C 31.976562 -25.070312 31.601562 -22.816406 30.5625 -20.921875 C 29.53125 -19.035156 28.015625 -17.445312 26.015625 -16.15625 C 24.023438 -14.875 21.722656 -13.847656 19.109375 -13.078125 C 16.492188 -12.316406 13.757812 -11.78125 10.90625 -11.46875 C 9.039062 -11.257812 7.132812 -11.125 5.1875 -11.0625 C 3.238281 -11.007812 1.300781 -11.019531 -0.625 -11.09375 L -1.75 -21.234375 C -1.175781 -21.128906 -0.613281 -21.035156 -0.0625 -20.953125 C 0.488281 -20.878906 1.0625 -20.816406 1.65625 -20.765625 C 1.507812 -23.867188 2.03125 -26.691406 3.21875 -29.234375 C 4.40625 -31.785156 6.09375 -33.882812 8.28125 -35.53125 C 10.476562 -37.175781 13.054688 -38.164062 16.015625 -38.5 Z M 13.828125 -20.421875 C 15.410156 -20.597656 16.832031 -20.914062 18.09375 -21.375 C 19.363281 -21.832031 20.363281 -22.472656 21.09375 -23.296875 C 21.820312 -24.117188 22.117188 -25.144531 21.984375 -26.375 C 21.847656 -27.59375 21.222656 -28.53125 20.109375 -29.1875 C 19.003906 -29.84375 17.773438 -30.097656 16.421875 -29.953125 C 15.078125 -29.804688 13.945312 -29.269531 13.03125 -28.34375 C 12.113281 -27.425781 11.457031 -26.328125 11.0625 -25.046875 C 10.664062 -23.765625 10.535156 -22.488281 10.671875 -21.21875 C 10.691406 -21.0625 10.707031 -20.90625 10.71875 -20.75 C 10.738281 -20.59375 10.78125 -20.414062 10.84375 -20.21875 C 11.375 -20.238281 11.882812 -20.265625 12.375 -20.296875 C 12.863281 -20.328125 13.347656 -20.367188 13.828125 -20.421875 Z M 13.25 -10.421875 C 14.945312 -8.441406 16.96875 -6.878906 19.3125 -5.734375 C 21.664062 -4.585938 24.101562 -4 26.625 -3.96875 L 27.90625 7.59375 C 24.175781 7.601562 20.675781 6.835938 17.40625 5.296875 C 14.144531 3.765625 11.304688 1.679688 8.890625 -0.953125 C 6.484375 -3.585938 4.632812 -6.53125 3.34375 -9.78125 C 4.945312 -9.757812 6.273438 -9.757812 7.328125 -9.78125 C 8.390625 -9.800781 9.378906 -9.863281 10.296875 -9.96875 C 10.765625 -10.019531 11.242188 -10.082031 11.734375 -10.15625 C 12.234375 -10.226562 12.738281 -10.316406 13.25 -10.421875 Z M 13.25 -10.421875 "/></g></g><g style="fill:#171616;fill-opacity:1;"><g transform="translate(108.286453, 131.052997)"><path style="stroke:none" d="M 22.203125 -30.359375 C 24.816406 -30.640625 26.914062 -30.097656 28.5 -28.734375 C 30.09375 -27.367188 31.207031 -25.410156 31.84375 -22.859375 C 32.488281 -20.316406 32.679688 -17.390625 32.421875 -14.078125 C 32.171875 -10.773438 31.492188 -7.3125 30.390625 -3.6875 C 29.296875 -0.0703125 27.820312 3.476562 25.96875 6.96875 L 13.84375 8.4375 C 14.789062 6.6875 15.71875 4.75 16.625 2.625 C 17.539062 0.507812 18.367188 -1.625 19.109375 -3.78125 C 19.859375 -5.945312 20.441406 -8.023438 20.859375 -10.015625 C 21.273438 -12.003906 21.476562 -13.773438 21.46875 -15.328125 C 21.457031 -16.890625 21.164062 -18.085938 20.59375 -18.921875 C 20.019531 -19.753906 19.078125 -20.101562 17.765625 -19.96875 C 15.441406 -19.707031 13.671875 -18.640625 12.453125 -16.765625 C 11.242188 -14.890625 10.738281 -12.664062 10.9375 -10.09375 C 11.269531 -8.914062 11.632812 -7.722656 12.03125 -6.515625 C 12.425781 -5.304688 12.890625 -4.085938 13.421875 -2.859375 L 4.21875 -1.84375 C 1.96875 -7.03125 0.410156 -11.851562 -0.453125 -16.3125 C -1.316406 -20.78125 -1.453125 -25.3125 -0.859375 -29.90625 L 11.171875 -31.234375 C 10.804688 -29.953125 10.5 -28.625 10.25 -27.25 C 10 -25.882812 9.8125 -24.503906 9.6875 -23.109375 C 10.820312 -25.023438 12.398438 -26.644531 14.421875 -27.96875 C 16.441406 -29.289062 19.035156 -30.085938 22.203125 -30.359375 Z M 22.203125 -30.359375 "/></g></g></g></svg>