<svg xmlns="http://www.w3.org/2000/svg" xmlns:xlink="http://www.w3.org/1999/xlink" width="328" zoomAndPan="magnify" viewBox="0 0 246 251.999989" height="336" preserveAspectRatio="xMidYMid meet" version="1.2"><defs/><g id="532d5caeda"><g style="fill:#000000;fill-opacity:1;"><g transform="translate(102.491954, 97.330623)"><path style="stroke:none" d="M -14.390625 -6.84375 C -9.796875 -7.925781 -5.757812 -7.882812 -2.28125 -6.71875 C 1.1875 -5.5625 4.171875 -3.566406 6.671875 -0.734375 C 9.171875 2.085938 11.226562 5.53125 12.84375 9.59375 C 14.457031 13.65625 15.703125 18.082031 16.578125 22.875 C 17.460938 27.664062 18.023438 32.546875 18.265625 37.515625 C 19.304688 37.410156 20.328125 37.265625 21.328125 37.078125 C 22.335938 36.898438 23.410156 36.707031 24.546875 36.5 C 27.617188 35.84375 30.625 34.742188 33.5625 33.203125 C 36.5 31.671875 39.097656 29.859375 41.359375 27.765625 C 43.628906 25.679688 45.316406 23.4375 46.421875 21.03125 C 47.535156 18.625 47.804688 16.210938 47.234375 13.796875 C 46.585938 11.046875 45.410156 8.953125 43.703125 7.515625 C 41.992188 6.085938 40.050781 5.628906 37.875 6.140625 C 35.820312 6.628906 34.320312 7.898438 33.375 9.953125 C 32.4375 12.015625 32.289062 14.421875 32.9375 17.171875 C 33.34375 18.890625 34.054688 20.59375 35.078125 22.28125 C 36.097656 23.96875 37.285156 25.582031 38.640625 27.125 C 37.023438 28.4375 35.1875 29.644531 33.125 30.75 C 31.0625 31.863281 28.90625 32.78125 26.65625 33.5 C 25.144531 31.363281 23.832031 29.0625 22.71875 26.59375 C 21.613281 24.125 20.8125 21.828125 20.3125 19.703125 C 19.238281 15.179688 19.191406 10.921875 20.171875 6.921875 C 21.160156 2.929688 22.894531 -0.441406 25.375 -3.203125 C 27.863281 -5.960938 30.867188 -7.757812 34.390625 -8.59375 C 37.929688 -9.425781 41.445312 -9.164062 44.9375 -7.8125 C 48.425781 -6.46875 51.5 -4.226562 54.15625 -1.09375 C 56.8125 2.039062 58.675781 5.867188 59.75 10.390625 C 60.863281 15.109375 60.984375 19.617188 60.109375 23.921875 C 59.234375 28.222656 57.234375 32.171875 54.109375 35.765625 C 56.609375 36.347656 59.234375 36.625 61.984375 36.59375 C 64.742188 36.570312 67.65625 36.195312 70.71875 35.46875 L 75.15625 54.265625 C 67.789062 56.003906 61.054688 56.164062 54.953125 54.75 C 48.847656 53.34375 43.34375 50.703125 38.4375 46.828125 C 35.34375 48.117188 32 49.191406 28.40625 50.046875 C 21.46875 51.679688 14.8125 52.503906 8.4375 52.515625 C 2.070312 52.535156 -3.734375 51.609375 -8.984375 49.734375 C -14.234375 47.867188 -18.679688 44.941406 -22.328125 40.953125 C -25.972656 36.972656 -28.546875 31.800781 -30.046875 25.4375 C -31.367188 19.851562 -31.550781 14.804688 -30.59375 10.296875 C -29.644531 5.796875 -27.75 2.0625 -24.90625 -0.90625 C -22.070312 -3.882812 -18.566406 -5.863281 -14.390625 -6.84375 Z M 1.640625 55.0625 C 4.191406 55.320312 6.773438 55.421875 9.390625 55.359375 C 12.015625 55.304688 14.710938 55.109375 17.484375 54.765625 C 16.984375 59.472656 16.023438 64.414062 14.609375 69.59375 C 13.203125 74.78125 11.328125 80.160156 8.984375 85.734375 L -15.21875 91.453125 C -10.945312 83.734375 -7.441406 76.925781 -4.703125 71.03125 C -1.972656 65.132812 0.140625 59.8125 1.640625 55.0625 Z M -9.640625 8.140625 C -12.285156 8.765625 -14.265625 10.179688 -15.578125 12.390625 C -16.890625 14.597656 -17.03125 17.875 -16 22.21875 C -14.96875 26.582031 -12.535156 30.113281 -8.703125 32.8125 C -4.867188 35.507812 -0.398438 37.117188 4.703125 37.640625 C 4.804688 34.140625 4.609375 30.539062 4.109375 26.84375 C 3.609375 23.144531 2.796875 19.765625 1.671875 16.703125 C 0.546875 13.648438 -0.957031 11.304688 -2.84375 9.671875 C -4.726562 8.035156 -6.992188 7.523438 -9.640625 8.140625 Z M -9.640625 8.140625 "/></g></g><g style="fill:#000000;fill-opacity:1;"><g transform="translate(102.491954, 97.330623)"><path style="stroke:none" d="M -14.390625 -6.84375 C -9.796875 -7.925781 -5.757812 -7.882812 -2.28125 -6.71875 C 1.1875 -5.5625 4.171875 -3.566406 6.671875 -0.734375 C 9.171875 2.085938 11.226562 5.53125 12.84375 9.59375 C 14.457031 13.65625 15.703125 18.082031 16.578125 22.875 C 17.460938 27.664062 18.023438 32.546875 18.265625 37.515625 C 19.304688 37.410156 20.328125 37.265625 21.328125 37.078125 C 22.335938 36.898438 23.410156 36.707031 24.546875 36.5 C 27.617188 35.84375 30.625 34.742188 33.5625 33.203125 C 36.5 31.671875 39.097656 29.859375 41.359375 27.765625 C 43.628906 25.679688 45.316406 23.4375 46.421875 21.03125 C 47.535156 18.625 47.804688 16.210938 47.234375 13.796875 C 46.585938 11.046875 45.410156 8.953125 43.703125 7.515625 C 41.992188 6.085938 40.050781 5.628906 37.875 6.140625 C 35.820312 6.628906 34.320312 7.898438 33.375 9.953125 C 32.4375 12.015625 32.289062 14.421875 32.9375 17.171875 C 33.34375 18.890625 34.054688 20.59375 35.078125 22.28125 C 36.097656 23.96875 37.285156 25.582031 38.640625 27.125 C 37.023438 28.4375 35.1875 29.644531 33.125 30.75 C 31.0625 31.863281 28.90625 32.78125 26.65625 33.5 C 25.144531 31.363281 23.832031 29.0625 22.71875 26.59375 C 21.613281 24.125 20.8125 21.828125 20.3125 19.703125 C 19.238281 15.179688 19.191406 10.921875 20.171875 6.921875 C 21.160156 2.929688 22.894531 -0.441406 25.375 -3.203125 C 27.863281 -5.960938 30.867188 -7.757812 34.390625 -8.59375 C 37.929688 -9.425781 41.445312 -9.164062 44.9375 -7.8125 C 48.425781 -6.46875 51.5 -4.226562 54.15625 -1.09375 C 56.8125 2.039062 58.675781 5.867188 59.75 10.390625 C 60.863281 15.109375 60.984375 19.617188 60.109375 23.921875 C 59.234375 28.222656 57.234375 32.171875 54.109375 35.765625 C 56.609375 36.347656 59.234375 36.625 61.984375 36.59375 C 64.742188 36.570312 67.65625 36.195312 70.71875 35.46875 L 75.15625 54.265625 C 67.789062 56.003906 61.054688 56.164062 54.953125 54.75 C 48.847656 53.34375 43.34375 50.703125 38.4375 46.828125 C 35.34375 48.117188 32 49.191406 28.40625 50.046875 C 21.46875 51.679688 14.8125 52.503906 8.4375 52.515625 C 2.070312 52.535156 -3.734375 51.609375 -8.984375 49.734375 C -14.234375 47.867188 -18.679688 44.941406 -22.328125 40.953125 C -25.972656 36.972656 -28.546875 31.800781 -30.046875 25.4375 C -31.367188 19.851562 -31.550781 14.804688 -30.59375 10.296875 C -29.644531 5.796875 -27.75 2.0625 -24.90625 -0.90625 C -22.070312 -3.882812 -18.566406 -5.863281 -14.390625 -6.84375 Z M 1.640625 55.0625 C 4.191406 55.320312 6.773438 55.421875 9.390625 55.359375 C 12.015625 55.304688 14.710938 55.109375 17.484375 54.765625 C 16.984375 59.472656 16.023438 64.414062 14.609375 69.59375 C 13.203125 74.78125 11.328125 80.160156 8.984375 85.734375 L -15.21875 91.453125 C -10.945312 83.734375 -7.441406 76.925781 -4.703125 71.03125 C -1.972656 65.132812 0.140625 59.8125 1.640625 55.0625 Z M -9.640625 8.140625 C -12.285156 8.765625 -14.265625 10.179688 -15.578125 12.390625 C -16.890625 14.597656 -17.03125 17.875 -16 22.21875 C -14.96875 26.582031 -12.535156 30.113281 -8.703125 32.8125 C -4.867188 35.507812 -0.398438 37.117188 4.703125 37.640625 C 4.804688 34.140625 4.609375 30.539062 4.109375 26.84375 C 3.609375 23.144531 2.796875 19.765625 1.671875 16.703125 C 0.546875 13.648438 -0.957031 11.304688 -2.84375 9.671875 C -4.726562 8.035156 -6.992188 7.523438 -9.640625 8.140625 Z M -9.640625 8.140625 "/></g></g></g></svg>