<svg xmlns="http://www.w3.org/2000/svg" xmlns:xlink="http://www.w3.org/1999/xlink" width="134" zoomAndPan="magnify" viewBox="0 0 100.5 54" height="72" preserveAspectRatio="xMidYMid meet" version="1.2"><defs/><g id="7d652eee2d"><g style="fill:#d8ff00;fill-opacity:1;"><g transform="translate(9.460553, 33.098685)"><path style="stroke:none" d="M 1 3.4375 L 4.953125 1.5 C 5.679688 2.695312 6.945312 3.296875 8.75 3.296875 C 9.582031 3.296875 10.351562 3.023438 11.0625 2.484375 C 11.78125 1.953125 12.140625 1.132812 12.140625 0.03125 L 12.140625 -1 C 11.285156 -0.0625 9.765625 0.40625 7.578125 0.40625 C 5.554688 0.40625 3.890625 -0.304688 2.578125 -1.734375 C 1.273438 -3.160156 0.625 -4.90625 0.625 -6.96875 C 0.625 -9.039062 1.273438 -10.789062 2.578125 -12.21875 C 3.890625 -13.65625 5.554688 -14.375 7.578125 -14.375 C 9.367188 -14.375 10.863281 -13.820312 12.0625 -12.71875 L 12.140625 -12.71875 L 12.140625 -13.96875 L 16.96875 -13.96875 L 16.96875 0.375 C 16.96875 2.644531 16.210938 4.394531 14.703125 5.625 C 13.203125 6.863281 11.21875 7.484375 8.75 7.484375 C 4.75 7.484375 2.164062 6.132812 1 3.4375 Z M 6.6875 -9.34375 C 6.0625 -8.726562 5.75 -7.9375 5.75 -6.96875 C 5.75 -6.007812 6.046875 -5.222656 6.640625 -4.609375 C 7.242188 -4.003906 8.035156 -3.703125 9.015625 -3.703125 C 9.960938 -3.703125 10.738281 -4.007812 11.34375 -4.625 C 11.945312 -5.25 12.25 -6.03125 12.25 -6.96875 C 12.25 -7.9375 11.9375 -8.726562 11.3125 -9.34375 C 10.6875 -9.957031 9.921875 -10.265625 9.015625 -10.265625 C 8.085938 -10.265625 7.3125 -9.957031 6.6875 -9.34375 Z M 6.6875 -9.34375 "/></g></g><g style="fill:#d8ff00;fill-opacity:1;"><g transform="translate(25.493473, 33.098685)"><path style="stroke:none" d="M 1.640625 0 L 1.640625 -13.96875 L 6.453125 -13.96875 L 6.453125 -11.953125 L 6.515625 -11.953125 C 6.546875 -12.023438 6.601562 -12.113281 6.6875 -12.21875 C 6.769531 -12.332031 6.945312 -12.523438 7.21875 -12.796875 C 7.488281 -13.066406 7.773438 -13.3125 8.078125 -13.53125 C 8.390625 -13.75 8.789062 -13.941406 9.28125 -14.109375 C 9.769531 -14.285156 10.269531 -14.375 10.78125 -14.375 C 11.3125 -14.375 11.828125 -14.300781 12.328125 -14.15625 C 12.835938 -14.007812 13.210938 -13.863281 13.453125 -13.71875 L 13.828125 -13.515625 L 11.8125 -9.421875 C 11.21875 -9.929688 10.382812 -10.1875 9.3125 -10.1875 C 8.726562 -10.1875 8.226562 -10.054688 7.8125 -9.796875 C 7.394531 -9.546875 7.097656 -9.238281 6.921875 -8.875 C 6.753906 -8.507812 6.632812 -8.203125 6.5625 -7.953125 C 6.488281 -7.703125 6.453125 -7.503906 6.453125 -7.359375 L 6.453125 0 Z M 1.640625 0 "/></g></g><g style="fill:#d8ff00;fill-opacity:1;"><g transform="translate(36.490242, 33.098685)"><path style="stroke:none" d="M 15.765625 -6.3125 L 5.640625 -6.3125 C 5.640625 -5.332031 5.957031 -4.609375 6.59375 -4.140625 C 7.226562 -3.671875 7.914062 -3.4375 8.65625 -3.4375 C 9.4375 -3.4375 10.050781 -3.539062 10.5 -3.75 C 10.957031 -3.957031 11.476562 -4.367188 12.0625 -4.984375 L 15.546875 -3.234375 C 14.097656 -0.804688 11.6875 0.40625 8.3125 0.40625 C 6.195312 0.40625 4.382812 -0.3125 2.875 -1.75 C 1.375 -3.195312 0.625 -4.9375 0.625 -6.96875 C 0.625 -9 1.375 -10.738281 2.875 -12.1875 C 4.382812 -13.644531 6.195312 -14.375 8.3125 -14.375 C 10.519531 -14.375 12.316406 -13.734375 13.703125 -12.453125 C 15.097656 -11.179688 15.796875 -9.351562 15.796875 -6.96875 C 15.796875 -6.644531 15.785156 -6.425781 15.765625 -6.3125 Z M 5.78125 -8.984375 L 11.078125 -8.984375 C 10.972656 -9.710938 10.6875 -10.269531 10.21875 -10.65625 C 9.757812 -11.050781 9.164062 -11.25 8.4375 -11.25 C 7.644531 -11.25 7.007812 -11.039062 6.53125 -10.625 C 6.0625 -10.207031 5.8125 -9.660156 5.78125 -8.984375 Z M 5.78125 -8.984375 "/></g></g><g style="fill:#d8ff00;fill-opacity:1;"><g transform="translate(50.345364, 33.098685)"><path style="stroke:none" d="M 1.640625 0 L 1.640625 -13.96875 L 6.453125 -13.96875 L 6.453125 -12.5 L 6.515625 -12.5 C 7.765625 -13.75 9.097656 -14.375 10.515625 -14.375 C 11.203125 -14.375 11.882812 -14.28125 12.5625 -14.09375 C 13.25 -13.914062 13.90625 -13.632812 14.53125 -13.25 C 15.15625 -12.875 15.660156 -12.335938 16.046875 -11.640625 C 16.441406 -10.941406 16.640625 -10.128906 16.640625 -9.203125 L 16.640625 0 L 11.8125 0 L 11.8125 -7.890625 C 11.8125 -8.617188 11.582031 -9.253906 11.125 -9.796875 C 10.664062 -10.347656 10.0625 -10.625 9.3125 -10.625 C 8.582031 -10.625 7.921875 -10.34375 7.328125 -9.78125 C 6.742188 -9.21875 6.453125 -8.585938 6.453125 -7.890625 L 6.453125 0 Z M 1.640625 0 "/></g></g><g style="fill:#d8ff00;fill-opacity:1;"><g transform="translate(65.779381, 33.098685)"><path style="stroke:none" d="M 15.765625 -6.3125 L 5.640625 -6.3125 C 5.640625 -5.332031 5.957031 -4.609375 6.59375 -4.140625 C 7.226562 -3.671875 7.914062 -3.4375 8.65625 -3.4375 C 9.4375 -3.4375 10.050781 -3.539062 10.5 -3.75 C 10.957031 -3.957031 11.476562 -4.367188 12.0625 -4.984375 L 15.546875 -3.234375 C 14.097656 -0.804688 11.6875 0.40625 8.3125 0.40625 C 6.195312 0.40625 4.382812 -0.3125 2.875 -1.75 C 1.375 -3.195312 0.625 -4.9375 0.625 -6.96875 C 0.625 -9 1.375 -10.738281 2.875 -12.1875 C 4.382812 -13.644531 6.195312 -14.375 8.3125 -14.375 C 10.519531 -14.375 12.316406 -13.734375 13.703125 -12.453125 C 15.097656 -11.179688 15.796875 -9.351562 15.796875 -6.96875 C 15.796875 -6.644531 15.785156 -6.425781 15.765625 -6.3125 Z M 5.78125 -8.984375 L 11.078125 -8.984375 C 10.972656 -9.710938 10.6875 -10.269531 10.21875 -10.65625 C 9.757812 -11.050781 9.164062 -11.25 8.4375 -11.25 C 7.644531 -11.25 7.007812 -11.039062 6.53125 -10.625 C 6.0625 -10.207031 5.8125 -9.660156 5.78125 -8.984375 Z M 5.78125 -8.984375 "/></g></g><g style="fill:#d8ff00;fill-opacity:1;"><g transform="translate(79.634503, 33.098685)"><path style="stroke:none" d="M 4.734375 -5.828125 C 5.609375 -5.828125 6.347656 -5.519531 6.953125 -4.90625 C 7.566406 -4.300781 7.875 -3.566406 7.875 -2.703125 C 7.875 -1.847656 7.566406 -1.113281 6.953125 -0.5 C 6.347656 0.101562 5.609375 0.40625 4.734375 0.40625 C 3.878906 0.40625 3.148438 0.101562 2.546875 -0.5 C 1.941406 -1.113281 1.640625 -1.847656 1.640625 -2.703125 C 1.640625 -3.566406 1.941406 -4.300781 2.546875 -4.90625 C 3.148438 -5.519531 3.878906 -5.828125 4.734375 -5.828125 Z M 4.734375 -5.828125 "/></g></g><g style="fill:#2f2f2f;fill-opacity:1;"><g transform="translate(10.196917, 33.835049)"><path style="stroke:none" d="M 1 3.4375 L 4.953125 1.5 C 5.679688 2.695312 6.945312 3.296875 8.75 3.296875 C 9.582031 3.296875 10.351562 3.023438 11.0625 2.484375 C 11.78125 1.953125 12.140625 1.132812 12.140625 0.03125 L 12.140625 -1 C 11.285156 -0.0625 9.765625 0.40625 7.578125 0.40625 C 5.554688 0.40625 3.890625 -0.304688 2.578125 -1.734375 C 1.273438 -3.160156 0.625 -4.90625 0.625 -6.96875 C 0.625 -9.039062 1.273438 -10.789062 2.578125 -12.21875 C 3.890625 -13.65625 5.554688 -14.375 7.578125 -14.375 C 9.367188 -14.375 10.863281 -13.820312 12.0625 -12.71875 L 12.140625 -12.71875 L 12.140625 -13.96875 L 16.96875 -13.96875 L 16.96875 0.375 C 16.96875 2.644531 16.210938 4.394531 14.703125 5.625 C 13.203125 6.863281 11.21875 7.484375 8.75 7.484375 C 4.75 7.484375 2.164062 6.132812 1 3.4375 Z M 6.6875 -9.34375 C 6.0625 -8.726562 5.75 -7.9375 5.75 -6.96875 C 5.75 -6.007812 6.046875 -5.222656 6.640625 -4.609375 C 7.242188 -4.003906 8.035156 -3.703125 9.015625 -3.703125 C 9.960938 -3.703125 10.738281 -4.007812 11.34375 -4.625 C 11.945312 -5.25 12.25 -6.03125 12.25 -6.96875 C 12.25 -7.9375 11.9375 -8.726562 11.3125 -9.34375 C 10.6875 -9.957031 9.921875 -10.265625 9.015625 -10.265625 C 8.085938 -10.265625 7.3125 -9.957031 6.6875 -9.34375 Z M 6.6875 -9.34375 "/></g></g><g style="fill:#2f2f2f;fill-opacity:1;"><g transform="translate(26.229837, 33.835049)"><path style="stroke:none" d="M 1.640625 0 L 1.640625 -13.96875 L 6.453125 -13.96875 L 6.453125 -11.953125 L 6.515625 -11.953125 C 6.546875 -12.023438 6.601562 -12.113281 6.6875 -12.21875 C 6.769531 -12.332031 6.945312 -12.523438 7.21875 -12.796875 C 7.488281 -13.066406 7.773438 -13.3125 8.078125 -13.53125 C 8.390625 -13.75 8.789062 -13.941406 9.28125 -14.109375 C 9.769531 -14.285156 10.269531 -14.375 10.78125 -14.375 C 11.3125 -14.375 11.828125 -14.300781 12.328125 -14.15625 C 12.835938 -14.007812 13.210938 -13.863281 13.453125 -13.71875 L 13.828125 -13.515625 L 11.8125 -9.421875 C 11.21875 -9.929688 10.382812 -10.1875 9.3125 -10.1875 C 8.726562 -10.1875 8.226562 -10.054688 7.8125 -9.796875 C 7.394531 -9.546875 7.097656 -9.238281 6.921875 -8.875 C 6.753906 -8.507812 6.632812 -8.203125 6.5625 -7.953125 C 6.488281 -7.703125 6.453125 -7.503906 6.453125 -7.359375 L 6.453125 0 Z M 1.640625 0 "/></g></g><g style="fill:#2f2f2f;fill-opacity:1;"><g transform="translate(37.226606, 33.835049)"><path style="stroke:none" d="M 15.765625 -6.3125 L 5.640625 -6.3125 C 5.640625 -5.332031 5.957031 -4.609375 6.59375 -4.140625 C 7.226562 -3.671875 7.914062 -3.4375 8.65625 -3.4375 C 9.4375 -3.4375 10.050781 -3.539062 10.5 -3.75 C 10.957031 -3.957031 11.476562 -4.367188 12.0625 -4.984375 L 15.546875 -3.234375 C 14.097656 -0.804688 11.6875 0.40625 8.3125 0.40625 C 6.195312 0.40625 4.382812 -0.3125 2.875 -1.75 C 1.375 -3.195312 0.625 -4.9375 0.625 -6.96875 C 0.625 -9 1.375 -10.738281 2.875 -12.1875 C 4.382812 -13.644531 6.195312 -14.375 8.3125 -14.375 C 10.519531 -14.375 12.316406 -13.734375 13.703125 -12.453125 C 15.097656 -11.179688 15.796875 -9.351562 15.796875 -6.96875 C 15.796875 -6.644531 15.785156 -6.425781 15.765625 -6.3125 Z M 5.78125 -8.984375 L 11.078125 -8.984375 C 10.972656 -9.710938 10.6875 -10.269531 10.21875 -10.65625 C 9.757812 -11.050781 9.164062 -11.25 8.4375 -11.25 C 7.644531 -11.25 7.007812 -11.039062 6.53125 -10.625 C 6.0625 -10.207031 5.8125 -9.660156 5.78125 -8.984375 Z M 5.78125 -8.984375 "/></g></g><g style="fill:#2f2f2f;fill-opacity:1;"><g transform="translate(51.081727, 33.835049)"><path style="stroke:none" d="M 1.640625 0 L 1.640625 -13.96875 L 6.453125 -13.96875 L 6.453125 -12.5 L 6.515625 -12.5 C 7.765625 -13.75 9.097656 -14.375 10.515625 -14.375 C 11.203125 -14.375 11.882812 -14.28125 12.5625 -14.09375 C 13.25 -13.914062 13.90625 -13.632812 14.53125 -13.25 C 15.15625 -12.875 15.660156 -12.335938 16.046875 -11.640625 C 16.441406 -10.941406 16.640625 -10.128906 16.640625 -9.203125 L 16.640625 0 L 11.8125 0 L 11.8125 -7.890625 C 11.8125 -8.617188 11.582031 -9.253906 11.125 -9.796875 C 10.664062 -10.347656 10.0625 -10.625 9.3125 -10.625 C 8.582031 -10.625 7.921875 -10.34375 7.328125 -9.78125 C 6.742188 -9.21875 6.453125 -8.585938 6.453125 -7.890625 L 6.453125 0 Z M 1.640625 0 "/></g></g><g style="fill:#2f2f2f;fill-opacity:1;"><g transform="translate(66.515745, 33.835049)"><path style="stroke:none" d="M 15.765625 -6.3125 L 5.640625 -6.3125 C 5.640625 -5.332031 5.957031 -4.609375 6.59375 -4.140625 C 7.226562 -3.671875 7.914062 -3.4375 8.65625 -3.4375 C 9.4375 -3.4375 10.050781 -3.539062 10.5 -3.75 C 10.957031 -3.957031 11.476562 -4.367188 12.0625 -4.984375 L 15.546875 -3.234375 C 14.097656 -0.804688 11.6875 0.40625 8.3125 0.40625 C 6.195312 0.40625 4.382812 -0.3125 2.875 -1.75 C 1.375 -3.195312 0.625 -4.9375 0.625 -6.96875 C 0.625 -9 1.375 -10.738281 2.875 -12.1875 C 4.382812 -13.644531 6.195312 -14.375 8.3125 -14.375 C 10.519531 -14.375 12.316406 -13.734375 13.703125 -12.453125 C 15.097656 -11.179688 15.796875 -9.351562 15.796875 -6.96875 C 15.796875 -6.644531 15.785156 -6.425781 15.765625 -6.3125 Z M 5.78125 -8.984375 L 11.078125 -8.984375 C 10.972656 -9.710938 10.6875 -10.269531 10.21875 -10.65625 C 9.757812 -11.050781 9.164062 -11.25 8.4375 -11.25 C 7.644531 -11.25 7.007812 -11.039062 6.53125 -10.625 C 6.0625 -10.207031 5.8125 -9.660156 5.78125 -8.984375 Z M 5.78125 -8.984375 "/></g></g><g style="fill:#2f2f2f;fill-opacity:1;"><g transform="translate(80.370867, 33.835049)"><path style="stroke:none" d="M 4.734375 -5.828125 C 5.609375 -5.828125 6.347656 -5.519531 6.953125 -4.90625 C 7.566406 -4.300781 7.875 -3.566406 7.875 -2.703125 C 7.875 -1.847656 7.566406 -1.113281 6.953125 -0.5 C 6.347656 0.101562 5.609375 0.40625 4.734375 0.40625 C 3.878906 0.40625 3.148438 0.101562 2.546875 -0.5 C 1.941406 -1.113281 1.640625 -1.847656 1.640625 -2.703125 C 1.640625 -3.566406 1.941406 -4.300781 2.546875 -4.90625 C 3.148438 -5.519531 3.878906 -5.828125 4.734375 -5.828125 Z M 4.734375 -5.828125 "/></g></g></g></svg>