<svg xmlns="http://www.w3.org/2000/svg" xmlns:xlink="http://www.w3.org/1999/xlink" width="142" zoomAndPan="magnify" viewBox="0 0 106.5 53.25" height="71" preserveAspectRatio="xMidYMid meet" version="1.2"><defs/><g id="5d3cefc009"><g style="fill:#2f2f2f;fill-opacity:1;"><g transform="translate(10.803038, 33.243405)"><path style="stroke:none" d="M 22.046875 -12.640625 L 22.046875 -7.734375 C 21.460938 -5.054688 20.1875 -3.03125 18.21875 -1.65625 C 16.25 -0.28125 14.050781 0.40625 11.625 0.40625 C 8.582031 0.40625 5.988281 -0.726562 3.84375 -3 C 1.695312 -5.28125 0.625 -8.035156 0.625 -11.265625 C 0.625 -14.546875 1.671875 -17.316406 3.765625 -19.578125 C 5.867188 -21.835938 8.488281 -22.96875 11.625 -22.96875 C 15.289062 -22.96875 18.1875 -21.679688 20.3125 -19.109375 L 16.953125 -15.421875 C 15.753906 -17.359375 14.078125 -18.328125 11.921875 -18.328125 C 10.335938 -18.328125 8.984375 -17.632812 7.859375 -16.25 C 6.742188 -14.875 6.1875 -13.210938 6.1875 -11.265625 C 6.1875 -9.347656 6.742188 -7.710938 7.859375 -6.359375 C 8.984375 -5.003906 10.335938 -4.328125 11.921875 -4.328125 C 13.234375 -4.328125 14.375 -4.722656 15.34375 -5.515625 C 16.320312 -6.304688 16.8125 -7.359375 16.8125 -8.671875 L 11.625 -8.671875 L 11.625 -12.640625 Z M 22.046875 -12.640625 "/></g></g><g style="fill:#2f2f2f;fill-opacity:1;"><g transform="translate(30.89791, 33.243405)"><path style="stroke:none" d="M 1.640625 0 L 1.640625 -14.03125 L 6.484375 -14.03125 L 6.484375 -12 L 6.53125 -12 C 6.570312 -12.070312 6.632812 -12.160156 6.71875 -12.265625 C 6.800781 -12.378906 6.976562 -12.570312 7.25 -12.84375 C 7.519531 -13.125 7.8125 -13.375 8.125 -13.59375 C 8.4375 -13.8125 8.835938 -14.003906 9.328125 -14.171875 C 9.816406 -14.347656 10.316406 -14.4375 10.828125 -14.4375 C 11.359375 -14.4375 11.878906 -14.363281 12.390625 -14.21875 C 12.898438 -14.070312 13.273438 -13.925781 13.515625 -13.78125 L 13.890625 -13.5625 L 11.875 -9.46875 C 11.269531 -9.976562 10.429688 -10.234375 9.359375 -10.234375 C 8.773438 -10.234375 8.269531 -10.101562 7.84375 -9.84375 C 7.425781 -9.59375 7.128906 -9.285156 6.953125 -8.921875 C 6.785156 -8.554688 6.664062 -8.242188 6.59375 -7.984375 C 6.519531 -7.734375 6.484375 -7.535156 6.484375 -7.390625 L 6.484375 0 Z M 1.640625 0 "/></g></g><g style="fill:#2f2f2f;fill-opacity:1;"><g transform="translate(41.942761, 33.243405)"><path style="stroke:none" d="M 15.828125 -6.34375 L 5.65625 -6.34375 C 5.65625 -5.363281 5.972656 -4.632812 6.609375 -4.15625 C 7.253906 -3.6875 7.953125 -3.453125 8.703125 -3.453125 C 9.484375 -3.453125 10.097656 -3.554688 10.546875 -3.765625 C 11.003906 -3.972656 11.523438 -4.382812 12.109375 -5 L 15.609375 -3.25 C 14.148438 -0.8125 11.726562 0.40625 8.34375 0.40625 C 6.226562 0.40625 4.410156 -0.316406 2.890625 -1.765625 C 1.378906 -3.210938 0.625 -4.957031 0.625 -7 C 0.625 -9.039062 1.378906 -10.789062 2.890625 -12.25 C 4.410156 -13.707031 6.226562 -14.4375 8.34375 -14.4375 C 10.5625 -14.4375 12.367188 -13.789062 13.765625 -12.5 C 15.160156 -11.21875 15.859375 -9.382812 15.859375 -7 C 15.859375 -6.675781 15.847656 -6.457031 15.828125 -6.34375 Z M 5.796875 -9.03125 L 11.125 -9.03125 C 11.019531 -9.757812 10.734375 -10.316406 10.265625 -10.703125 C 9.804688 -11.097656 9.210938 -11.296875 8.484375 -11.296875 C 7.679688 -11.296875 7.039062 -11.082031 6.5625 -10.65625 C 6.09375 -10.238281 5.835938 -9.695312 5.796875 -9.03125 Z M 5.796875 -9.03125 "/></g></g><g style="fill:#2f2f2f;fill-opacity:1;"><g transform="translate(55.858463, 33.243405)"><path style="stroke:none" d="M 1.640625 0 L 1.640625 -14.03125 L 6.484375 -14.03125 L 6.484375 -12.546875 L 6.53125 -12.546875 C 7.789062 -13.804688 9.132812 -14.4375 10.5625 -14.4375 C 11.25 -14.4375 11.929688 -14.34375 12.609375 -14.15625 C 13.296875 -13.976562 13.953125 -13.695312 14.578125 -13.3125 C 15.210938 -12.9375 15.722656 -12.394531 16.109375 -11.6875 C 16.503906 -10.988281 16.703125 -10.175781 16.703125 -9.25 L 16.703125 0 L 11.875 0 L 11.875 -7.9375 C 11.875 -8.664062 11.640625 -9.300781 11.171875 -9.84375 C 10.703125 -10.394531 10.097656 -10.671875 9.359375 -10.671875 C 8.628906 -10.671875 7.96875 -10.382812 7.375 -9.8125 C 6.78125 -9.25 6.484375 -8.625 6.484375 -7.9375 L 6.484375 0 Z M 1.640625 0 "/></g></g><g style="fill:#2f2f2f;fill-opacity:1;"><g transform="translate(71.359965, 33.243405)"><path style="stroke:none" d="M 15.828125 -6.34375 L 5.65625 -6.34375 C 5.65625 -5.363281 5.972656 -4.632812 6.609375 -4.15625 C 7.253906 -3.6875 7.953125 -3.453125 8.703125 -3.453125 C 9.484375 -3.453125 10.097656 -3.554688 10.546875 -3.765625 C 11.003906 -3.972656 11.523438 -4.382812 12.109375 -5 L 15.609375 -3.25 C 14.148438 -0.8125 11.726562 0.40625 8.34375 0.40625 C 6.226562 0.40625 4.410156 -0.316406 2.890625 -1.765625 C 1.378906 -3.210938 0.625 -4.957031 0.625 -7 C 0.625 -9.039062 1.378906 -10.789062 2.890625 -12.25 C 4.410156 -13.707031 6.226562 -14.4375 8.34375 -14.4375 C 10.5625 -14.4375 12.367188 -13.789062 13.765625 -12.5 C 15.160156 -11.21875 15.859375 -9.382812 15.859375 -7 C 15.859375 -6.675781 15.847656 -6.457031 15.828125 -6.34375 Z M 5.796875 -9.03125 L 11.125 -9.03125 C 11.019531 -9.757812 10.734375 -10.316406 10.265625 -10.703125 C 9.804688 -11.097656 9.210938 -11.296875 8.484375 -11.296875 C 7.679688 -11.296875 7.039062 -11.082031 6.5625 -10.65625 C 6.09375 -10.238281 5.835938 -9.695312 5.796875 -9.03125 Z M 5.796875 -9.03125 "/></g></g><g style="fill:#2f2f2f;fill-opacity:1;"><g transform="translate(85.275667, 33.243405)"><path style="stroke:none" d="M 4.765625 -5.859375 C 5.640625 -5.859375 6.378906 -5.550781 6.984375 -4.9375 C 7.597656 -4.320312 7.90625 -3.578125 7.90625 -2.703125 C 7.90625 -1.847656 7.597656 -1.113281 6.984375 -0.5 C 6.378906 0.101562 5.640625 0.40625 4.765625 0.40625 C 3.898438 0.40625 3.160156 0.101562 2.546875 -0.5 C 1.941406 -1.113281 1.640625 -1.847656 1.640625 -2.703125 C 1.640625 -3.578125 1.941406 -4.320312 2.546875 -4.9375 C 3.160156 -5.550781 3.898438 -5.859375 4.765625 -5.859375 Z M 4.765625 -5.859375 "/></g></g><g style="fill:#2f2f2f;fill-opacity:1;"><g transform="translate(10.803038, 33.243405)"><path style="stroke:none" d="M 22.046875 -12.640625 L 22.046875 -7.734375 C 21.460938 -5.054688 20.1875 -3.03125 18.21875 -1.65625 C 16.25 -0.28125 14.050781 0.40625 11.625 0.40625 C 8.582031 0.40625 5.988281 -0.726562 3.84375 -3 C 1.695312 -5.28125 0.625 -8.035156 0.625 -11.265625 C 0.625 -14.546875 1.671875 -17.316406 3.765625 -19.578125 C 5.867188 -21.835938 8.488281 -22.96875 11.625 -22.96875 C 15.289062 -22.96875 18.1875 -21.679688 20.3125 -19.109375 L 16.953125 -15.421875 C 15.753906 -17.359375 14.078125 -18.328125 11.921875 -18.328125 C 10.335938 -18.328125 8.984375 -17.632812 7.859375 -16.25 C 6.742188 -14.875 6.1875 -13.210938 6.1875 -11.265625 C 6.1875 -9.347656 6.742188 -7.710938 7.859375 -6.359375 C 8.984375 -5.003906 10.335938 -4.328125 11.921875 -4.328125 C 13.234375 -4.328125 14.375 -4.722656 15.34375 -5.515625 C 16.320312 -6.304688 16.8125 -7.359375 16.8125 -8.671875 L 11.625 -8.671875 L 11.625 -12.640625 Z M 22.046875 -12.640625 "/></g></g><g style="fill:#2f2f2f;fill-opacity:1;"><g transform="translate(30.89791, 33.243405)"><path style="stroke:none" d="M 1.640625 0 L 1.640625 -14.03125 L 6.484375 -14.03125 L 6.484375 -12 L 6.53125 -12 C 6.570312 -12.070312 6.632812 -12.160156 6.71875 -12.265625 C 6.800781 -12.378906 6.976562 -12.570312 7.25 -12.84375 C 7.519531 -13.125 7.8125 -13.375 8.125 -13.59375 C 8.4375 -13.8125 8.835938 -14.003906 9.328125 -14.171875 C 9.816406 -14.347656 10.316406 -14.4375 10.828125 -14.4375 C 11.359375 -14.4375 11.878906 -14.363281 12.390625 -14.21875 C 12.898438 -14.070312 13.273438 -13.925781 13.515625 -13.78125 L 13.890625 -13.5625 L 11.875 -9.46875 C 11.269531 -9.976562 10.429688 -10.234375 9.359375 -10.234375 C 8.773438 -10.234375 8.269531 -10.101562 7.84375 -9.84375 C 7.425781 -9.59375 7.128906 -9.285156 6.953125 -8.921875 C 6.785156 -8.554688 6.664062 -8.242188 6.59375 -7.984375 C 6.519531 -7.734375 6.484375 -7.535156 6.484375 -7.390625 L 6.484375 0 Z M 1.640625 0 "/></g></g><g style="fill:#2f2f2f;fill-opacity:1;"><g transform="translate(41.942761, 33.243405)"><path style="stroke:none" d="M 15.828125 -6.34375 L 5.65625 -6.34375 C 5.65625 -5.363281 5.972656 -4.632812 6.609375 -4.15625 C 7.253906 -3.6875 7.953125 -3.453125 8.703125 -3.453125 C 9.484375 -3.453125 10.097656 -3.554688 10.546875 -3.765625 C 11.003906 -3.972656 11.523438 -4.382812 12.109375 -5 L 15.609375 -3.25 C 14.148438 -0.8125 11.726562 0.40625 8.34375 0.40625 C 6.226562 0.40625 4.410156 -0.316406 2.890625 -1.765625 C 1.378906 -3.210938 0.625 -4.957031 0.625 -7 C 0.625 -9.039062 1.378906 -10.789062 2.890625 -12.25 C 4.410156 -13.707031 6.226562 -14.4375 8.34375 -14.4375 C 10.5625 -14.4375 12.367188 -13.789062 13.765625 -12.5 C 15.160156 -11.21875 15.859375 -9.382812 15.859375 -7 C 15.859375 -6.675781 15.847656 -6.457031 15.828125 -6.34375 Z M 5.796875 -9.03125 L 11.125 -9.03125 C 11.019531 -9.757812 10.734375 -10.316406 10.265625 -10.703125 C 9.804688 -11.097656 9.210938 -11.296875 8.484375 -11.296875 C 7.679688 -11.296875 7.039062 -11.082031 6.5625 -10.65625 C 6.09375 -10.238281 5.835938 -9.695312 5.796875 -9.03125 Z M 5.796875 -9.03125 "/></g></g><g style="fill:#2f2f2f;fill-opacity:1;"><g transform="translate(55.858463, 33.243405)"><path style="stroke:none" d="M 1.640625 0 L 1.640625 -14.03125 L 6.484375 -14.03125 L 6.484375 -12.546875 L 6.53125 -12.546875 C 7.789062 -13.804688 9.132812 -14.4375 10.5625 -14.4375 C 11.25 -14.4375 11.929688 -14.34375 12.609375 -14.15625 C 13.296875 -13.976562 13.953125 -13.695312 14.578125 -13.3125 C 15.210938 -12.9375 15.722656 -12.394531 16.109375 -11.6875 C 16.503906 -10.988281 16.703125 -10.175781 16.703125 -9.25 L 16.703125 0 L 11.875 0 L 11.875 -7.9375 C 11.875 -8.664062 11.640625 -9.300781 11.171875 -9.84375 C 10.703125 -10.394531 10.097656 -10.671875 9.359375 -10.671875 C 8.628906 -10.671875 7.96875 -10.382812 7.375 -9.8125 C 6.78125 -9.25 6.484375 -8.625 6.484375 -7.9375 L 6.484375 0 Z M 1.640625 0 "/></g></g><g style="fill:#2f2f2f;fill-opacity:1;"><g transform="translate(71.359965, 33.243405)"><path style="stroke:none" d="M 15.828125 -6.34375 L 5.65625 -6.34375 C 5.65625 -5.363281 5.972656 -4.632812 6.609375 -4.15625 C 7.253906 -3.6875 7.953125 -3.453125 8.703125 -3.453125 C 9.484375 -3.453125 10.097656 -3.554688 10.546875 -3.765625 C 11.003906 -3.972656 11.523438 -4.382812 12.109375 -5 L 15.609375 -3.25 C 14.148438 -0.8125 11.726562 0.40625 8.34375 0.40625 C 6.226562 0.40625 4.410156 -0.316406 2.890625 -1.765625 C 1.378906 -3.210938 0.625 -4.957031 0.625 -7 C 0.625 -9.039062 1.378906 -10.789062 2.890625 -12.25 C 4.410156 -13.707031 6.226562 -14.4375 8.34375 -14.4375 C 10.5625 -14.4375 12.367188 -13.789062 13.765625 -12.5 C 15.160156 -11.21875 15.859375 -9.382812 15.859375 -7 C 15.859375 -6.675781 15.847656 -6.457031 15.828125 -6.34375 Z M 5.796875 -9.03125 L 11.125 -9.03125 C 11.019531 -9.757812 10.734375 -10.316406 10.265625 -10.703125 C 9.804688 -11.097656 9.210938 -11.296875 8.484375 -11.296875 C 7.679688 -11.296875 7.039062 -11.082031 6.5625 -10.65625 C 6.09375 -10.238281 5.835938 -9.695312 5.796875 -9.03125 Z M 5.796875 -9.03125 "/></g></g><g style="fill:#2f2f2f;fill-opacity:1;"><g transform="translate(85.275667, 33.243405)"><path style="stroke:none" d="M 4.765625 -5.859375 C 5.640625 -5.859375 6.378906 -5.550781 6.984375 -4.9375 C 7.597656 -4.320312 7.90625 -3.578125 7.90625 -2.703125 C 7.90625 -1.847656 7.597656 -1.113281 6.984375 -0.5 C 6.378906 0.101562 5.640625 0.40625 4.765625 0.40625 C 3.898438 0.40625 3.160156 0.101562 2.546875 -0.5 C 1.941406 -1.113281 1.640625 -1.847656 1.640625 -2.703125 C 1.640625 -3.578125 1.941406 -4.320312 2.546875 -4.9375 C 3.160156 -5.550781 3.898438 -5.859375 4.765625 -5.859375 Z M 4.765625 -5.859375 "/></g></g></g></svg>