<svg xmlns="http://www.w3.org/2000/svg" xmlns:xlink="http://www.w3.org/1999/xlink" width="108" zoomAndPan="magnify" viewBox="0 0 81 104.249996" height="139" preserveAspectRatio="xMidYMid meet" version="1.2"><defs/><g id="ff3a0315c4"><g style="fill:#000000;fill-opacity:1;"><g transform="translate(34.346519, 43.013346)"><path style="stroke:none" d="M -4.3125 -2.046875 C -2.9375 -2.367188 -1.722656 -2.359375 -0.671875 -2.015625 C 0.367188 -1.671875 1.257812 -1.070312 2 -0.21875 C 2.75 0.625 3.363281 1.648438 3.84375 2.859375 C 4.332031 4.078125 4.707031 5.40625 4.96875 6.84375 C 5.238281 8.289062 5.410156 9.757812 5.484375 11.25 C 5.785156 11.21875 6.085938 11.171875 6.390625 11.109375 C 6.691406 11.054688 7.019531 11.003906 7.375 10.953125 C 8.289062 10.753906 9.1875 10.425781 10.0625 9.96875 C 10.9375 9.507812 11.710938 8.960938 12.390625 8.328125 C 13.078125 7.703125 13.585938 7.03125 13.921875 6.3125 C 14.253906 5.59375 14.332031 4.867188 14.15625 4.140625 C 13.957031 3.316406 13.601562 2.6875 13.09375 2.25 C 12.59375 1.820312 12.015625 1.6875 11.359375 1.84375 C 10.734375 1.988281 10.28125 2.367188 10 2.984375 C 9.71875 3.609375 9.675781 4.332031 9.875 5.15625 C 10 5.664062 10.210938 6.171875 10.515625 6.671875 C 10.828125 7.179688 11.1875 7.671875 11.59375 8.140625 C 11.101562 8.523438 10.550781 8.882812 9.9375 9.21875 C 9.320312 9.550781 8.675781 9.828125 8 10.046875 C 7.539062 9.398438 7.144531 8.707031 6.8125 7.96875 C 6.476562 7.226562 6.234375 6.546875 6.078125 5.921875 C 5.753906 4.554688 5.738281 3.273438 6.03125 2.078125 C 6.332031 0.878906 6.859375 -0.128906 7.609375 -0.953125 C 8.359375 -1.785156 9.257812 -2.328125 10.3125 -2.578125 C 11.375 -2.828125 12.425781 -2.75 13.46875 -2.34375 C 14.507812 -1.9375 15.425781 -1.265625 16.21875 -0.328125 C 17.019531 0.609375 17.582031 1.757812 17.90625 3.125 C 18.238281 4.53125 18.273438 5.878906 18.015625 7.171875 C 17.753906 8.460938 17.15625 9.648438 16.21875 10.734375 C 16.96875 10.910156 17.753906 10.988281 18.578125 10.96875 C 19.410156 10.957031 20.285156 10.84375 21.203125 10.625 L 22.53125 16.265625 C 20.332031 16.785156 18.3125 16.832031 16.46875 16.40625 C 14.632812 15.988281 12.988281 15.195312 11.53125 14.03125 C 10.601562 14.425781 9.601562 14.753906 8.53125 15.015625 C 6.4375 15.503906 4.4375 15.75 2.53125 15.75 C 0.625 15.75 -1.113281 15.46875 -2.6875 14.90625 C -4.269531 14.351562 -5.601562 13.476562 -6.6875 12.28125 C -7.78125 11.09375 -8.550781 9.546875 -9 7.640625 C -9.394531 5.953125 -9.445312 4.429688 -9.15625 3.078125 C -8.875 1.734375 -8.304688 0.617188 -7.453125 -0.265625 C -6.609375 -1.160156 -5.5625 -1.753906 -4.3125 -2.046875 Z M 0.5 16.5 C 1.257812 16.59375 2.03125 16.628906 2.8125 16.609375 C 3.601562 16.585938 4.414062 16.523438 5.25 16.421875 C 5.09375 17.828125 4.800781 19.304688 4.375 20.859375 C 3.957031 22.421875 3.394531 24.039062 2.6875 25.71875 L -4.5625 27.421875 C -3.28125 25.109375 -2.226562 23.066406 -1.40625 21.296875 C -0.582031 19.535156 0.0507812 17.9375 0.5 16.5 Z M -2.890625 2.453125 C -3.679688 2.640625 -4.269531 3.0625 -4.65625 3.71875 C -5.050781 4.375 -5.097656 5.359375 -4.796875 6.671875 C -4.484375 7.960938 -3.753906 9.015625 -2.609375 9.828125 C -1.460938 10.640625 -0.125 11.128906 1.40625 11.296875 C 1.4375 10.234375 1.378906 9.144531 1.234375 8.03125 C 1.085938 6.925781 0.84375 5.914062 0.5 5 C 0.15625 4.082031 -0.289062 3.378906 -0.84375 2.890625 C -1.40625 2.398438 -2.085938 2.253906 -2.890625 2.453125 Z M -2.890625 2.453125 "/></g></g><g style="fill:#000000;fill-opacity:1;"><g transform="translate(34.346519, 43.013346)"><path style="stroke:none" d="M -4.3125 -2.046875 C -2.9375 -2.367188 -1.722656 -2.359375 -0.671875 -2.015625 C 0.367188 -1.671875 1.257812 -1.070312 2 -0.21875 C 2.75 0.625 3.363281 1.648438 3.84375 2.859375 C 4.332031 4.078125 4.707031 5.40625 4.96875 6.84375 C 5.238281 8.289062 5.410156 9.757812 5.484375 11.25 C 5.785156 11.21875 6.085938 11.171875 6.390625 11.109375 C 6.691406 11.054688 7.019531 11.003906 7.375 10.953125 C 8.289062 10.753906 9.1875 10.425781 10.0625 9.96875 C 10.9375 9.507812 11.710938 8.960938 12.390625 8.328125 C 13.078125 7.703125 13.585938 7.03125 13.921875 6.3125 C 14.253906 5.59375 14.332031 4.867188 14.15625 4.140625 C 13.957031 3.316406 13.601562 2.6875 13.09375 2.25 C 12.59375 1.820312 12.015625 1.6875 11.359375 1.84375 C 10.734375 1.988281 10.28125 2.367188 10 2.984375 C 9.71875 3.609375 9.675781 4.332031 9.875 5.15625 C 10 5.664062 10.210938 6.171875 10.515625 6.671875 C 10.828125 7.179688 11.1875 7.671875 11.59375 8.140625 C 11.101562 8.523438 10.550781 8.882812 9.9375 9.21875 C 9.320312 9.550781 8.675781 9.828125 8 10.046875 C 7.539062 9.398438 7.144531 8.707031 6.8125 7.96875 C 6.476562 7.226562 6.234375 6.546875 6.078125 5.921875 C 5.753906 4.554688 5.738281 3.273438 6.03125 2.078125 C 6.332031 0.878906 6.859375 -0.128906 7.609375 -0.953125 C 8.359375 -1.785156 9.257812 -2.328125 10.3125 -2.578125 C 11.375 -2.828125 12.425781 -2.75 13.46875 -2.34375 C 14.507812 -1.9375 15.425781 -1.265625 16.21875 -0.328125 C 17.019531 0.609375 17.582031 1.757812 17.90625 3.125 C 18.238281 4.53125 18.273438 5.878906 18.015625 7.171875 C 17.753906 8.460938 17.15625 9.648438 16.21875 10.734375 C 16.96875 10.910156 17.753906 10.988281 18.578125 10.96875 C 19.410156 10.957031 20.285156 10.84375 21.203125 10.625 L 22.53125 16.265625 C 20.332031 16.785156 18.3125 16.832031 16.46875 16.40625 C 14.632812 15.988281 12.988281 15.195312 11.53125 14.03125 C 10.601562 14.425781 9.601562 14.753906 8.53125 15.015625 C 6.4375 15.503906 4.4375 15.75 2.53125 15.75 C 0.625 15.75 -1.113281 15.46875 -2.6875 14.90625 C -4.269531 14.351562 -5.601562 13.476562 -6.6875 12.28125 C -7.78125 11.09375 -8.550781 9.546875 -9 7.640625 C -9.394531 5.953125 -9.445312 4.429688 -9.15625 3.078125 C -8.875 1.734375 -8.304688 0.617188 -7.453125 -0.265625 C -6.609375 -1.160156 -5.5625 -1.753906 -4.3125 -2.046875 Z M 0.5 16.5 C 1.257812 16.59375 2.03125 16.628906 2.8125 16.609375 C 3.601562 16.585938 4.414062 16.523438 5.25 16.421875 C 5.09375 17.828125 4.800781 19.304688 4.375 20.859375 C 3.957031 22.421875 3.394531 24.039062 2.6875 25.71875 L -4.5625 27.421875 C -3.28125 25.109375 -2.226562 23.066406 -1.40625 21.296875 C -0.582031 19.535156 0.0507812 17.9375 0.5 16.5 Z M -2.890625 2.453125 C -3.679688 2.640625 -4.269531 3.0625 -4.65625 3.71875 C -5.050781 4.375 -5.097656 5.359375 -4.796875 6.671875 C -4.484375 7.960938 -3.753906 9.015625 -2.609375 9.828125 C -1.460938 10.640625 -0.125 11.128906 1.40625 11.296875 C 1.4375 10.234375 1.378906 9.144531 1.234375 8.03125 C 1.085938 6.925781 0.84375 5.914062 0.5 5 C 0.15625 4.082031 -0.289062 3.378906 -0.84375 2.890625 C -1.40625 2.398438 -2.085938 2.253906 -2.890625 2.453125 Z M -2.890625 2.453125 "/></g></g></g></svg>