<svg xmlns="http://www.w3.org/2000/svg" xmlns:xlink="http://www.w3.org/1999/xlink" width="146" zoomAndPan="magnify" viewBox="0 0 109.5 67.499998" height="90" preserveAspectRatio="xMidYMid meet" version="1.2"><defs/><g id="5f7151eed6"><g style="fill:#d8ff00;fill-opacity:1;"><g transform="translate(15.595037, 37.179591)"><path style="stroke:none" d="M -3.28125 4.078125 C -3.28125 2.523438 -2.960938 1.238281 -2.328125 0.21875 C -1.691406 -0.800781 -0.828125 -1.601562 0.265625 -2.1875 C 1.359375 -2.769531 2.613281 -3.164062 4.03125 -3.375 C 5.457031 -3.582031 6.96875 -3.644531 8.5625 -3.5625 C 10.15625 -3.488281 11.757812 -3.304688 13.375 -3.015625 C 13.414062 -3.347656 13.441406 -3.679688 13.453125 -4.015625 C 13.472656 -4.359375 13.492188 -4.71875 13.515625 -5.09375 C 13.535156 -6.125 13.410156 -7.164062 13.140625 -8.21875 C 12.878906 -9.269531 12.5 -10.238281 12 -11.125 C 11.5 -12.007812 10.90625 -12.71875 10.21875 -13.25 C 9.539062 -13.789062 8.796875 -14.0625 7.984375 -14.0625 C 7.046875 -14.0625 6.285156 -13.84375 5.703125 -13.40625 C 5.117188 -12.96875 4.828125 -12.378906 4.828125 -11.640625 C 4.828125 -10.953125 5.117188 -10.378906 5.703125 -9.921875 C 6.285156 -9.460938 7.046875 -9.234375 7.984375 -9.234375 C 8.554688 -9.234375 9.148438 -9.332031 9.765625 -9.53125 C 10.378906 -9.726562 10.984375 -9.984375 11.578125 -10.296875 C 11.878906 -9.679688 12.128906 -9 12.328125 -8.25 C 12.523438 -7.507812 12.65625 -6.753906 12.71875 -5.984375 C 11.925781 -5.671875 11.09375 -5.425781 10.21875 -5.25 C 9.34375 -5.082031 8.546875 -5 7.828125 -5 C 6.304688 -5 4.941406 -5.304688 3.734375 -5.921875 C 2.535156 -6.535156 1.585938 -7.34375 0.890625 -8.34375 C 0.191406 -9.351562 -0.15625 -10.453125 -0.15625 -11.640625 C -0.15625 -12.835938 0.191406 -13.941406 0.890625 -14.953125 C 1.585938 -15.960938 2.535156 -16.773438 3.734375 -17.390625 C 4.941406 -18.003906 6.304688 -18.3125 7.828125 -18.3125 C 9.421875 -18.3125 10.867188 -18.007812 12.171875 -17.40625 C 13.484375 -16.800781 14.597656 -15.863281 15.515625 -14.59375 C 15.890625 -15.34375 16.175781 -16.160156 16.375 -17.046875 C 16.570312 -17.929688 16.671875 -18.890625 16.671875 -19.921875 L 23.015625 -19.921875 C 23.015625 -17.441406 22.554688 -15.273438 21.640625 -13.421875 C 20.734375 -11.578125 19.476562 -10.019531 17.875 -8.75 C 18.050781 -7.664062 18.140625 -6.515625 18.140625 -5.296875 C 18.140625 -2.953125 17.898438 -0.765625 17.421875 1.265625 C 16.941406 3.296875 16.207031 5.082031 15.21875 6.625 C 14.226562 8.164062 12.957031 9.367188 11.40625 10.234375 C 9.851562 11.097656 8.003906 11.53125 5.859375 11.53125 C 3.972656 11.53125 2.34375 11.207031 0.96875 10.5625 C -0.394531 9.914062 -1.441406 9.023438 -2.171875 7.890625 C -2.910156 6.753906 -3.28125 5.484375 -3.28125 4.078125 Z M 17.71875 3.640625 C 18 2.835938 18.226562 2.015625 18.40625 1.171875 C 18.582031 0.328125 18.722656 -0.546875 18.828125 -1.453125 C 20.296875 -0.941406 21.800781 -0.265625 23.34375 0.578125 C 24.894531 1.421875 26.472656 2.429688 28.078125 3.609375 L 28.078125 11.765625 C 25.941406 9.816406 24.03125 8.179688 22.34375 6.859375 C 20.664062 5.546875 19.125 4.472656 17.71875 3.640625 Z M 1.875 3.6875 C 1.875 4.582031 2.175781 5.320312 2.78125 5.90625 C 3.382812 6.5 4.421875 6.796875 5.890625 6.796875 C 7.359375 6.796875 8.671875 6.28125 9.828125 5.25 C 10.984375 4.226562 11.835938 2.925781 12.390625 1.34375 C 11.273438 1.039062 10.109375 0.828125 8.890625 0.703125 C 7.671875 0.585938 6.53125 0.59375 5.46875 0.71875 C 4.40625 0.851562 3.539062 1.160156 2.875 1.640625 C 2.207031 2.117188 1.875 2.800781 1.875 3.6875 Z M 1.875 3.6875 "/></g></g><g style="fill:#d8ff00;fill-opacity:1;"><g transform="translate(36.894517, 35.896707)"><path style="stroke:none" d="M 6.578125 -9.09375 C 7.367188 -9.175781 8.019531 -8.984375 8.53125 -8.515625 C 9.039062 -8.046875 9.410156 -7.390625 9.640625 -6.546875 C 9.867188 -5.710938 9.9375 -4.765625 9.84375 -3.703125 L 6.453125 -3.328125 C 6.515625 -3.859375 6.523438 -4.328125 6.484375 -4.734375 C 6.453125 -5.148438 6.351562 -5.472656 6.1875 -5.703125 C 6.019531 -5.929688 5.765625 -6.03125 5.421875 -6 C 4.921875 -5.9375 4.503906 -5.703125 4.171875 -5.296875 C 3.835938 -4.890625 3.601562 -4.382812 3.46875 -3.78125 C 3.332031 -3.1875 3.316406 -2.5625 3.421875 -1.90625 C 3.609375 -1.34375 3.832031 -0.757812 4.09375 -0.15625 L 1.46875 0.140625 C 0.75 -1.398438 0.234375 -2.894531 -0.078125 -4.34375 C -0.398438 -5.800781 -0.492188 -7.21875 -0.359375 -8.59375 L 3.078125 -8.96875 C 2.972656 -8.550781 2.890625 -8.113281 2.828125 -7.65625 C 2.773438 -7.195312 2.75 -6.734375 2.75 -6.265625 C 3.039062 -6.992188 3.492188 -7.625 4.109375 -8.15625 C 4.722656 -8.695312 5.546875 -9.007812 6.578125 -9.09375 Z M 6.578125 -9.09375 "/></g></g><g style="fill:#d8ff00;fill-opacity:1;"><g transform="translate(47.550205, 34.719113)"><path style="stroke:none" d="M 4.8125 -11.546875 C 5.800781 -11.648438 6.625 -11.566406 7.28125 -11.296875 C 7.945312 -11.023438 8.460938 -10.628906 8.828125 -10.109375 C 9.191406 -9.585938 9.410156 -8.984375 9.484375 -8.296875 C 9.578125 -7.523438 9.46875 -6.851562 9.15625 -6.28125 C 8.84375 -5.707031 8.390625 -5.226562 7.796875 -4.84375 C 7.203125 -4.46875 6.507812 -4.164062 5.71875 -3.9375 C 4.9375 -3.707031 4.117188 -3.539062 3.265625 -3.4375 C 2.703125 -3.382812 2.128906 -3.347656 1.546875 -3.328125 C 0.960938 -3.304688 0.382812 -3.304688 -0.1875 -3.328125 L -0.53125 -6.359375 C -0.351562 -6.335938 -0.179688 -6.3125 -0.015625 -6.28125 C 0.148438 -6.257812 0.328125 -6.238281 0.515625 -6.21875 C 0.460938 -7.15625 0.613281 -8.003906 0.96875 -8.765625 C 1.320312 -9.523438 1.828125 -10.148438 2.484375 -10.640625 C 3.140625 -11.140625 3.914062 -11.441406 4.8125 -11.546875 Z M 4.140625 -6.125 C 4.609375 -6.175781 5.03125 -6.269531 5.40625 -6.40625 C 5.789062 -6.550781 6.09375 -6.742188 6.3125 -6.984375 C 6.539062 -7.222656 6.632812 -7.523438 6.59375 -7.890625 C 6.550781 -8.265625 6.359375 -8.550781 6.015625 -8.75 C 5.679688 -8.957031 5.316406 -9.035156 4.921875 -8.984375 C 4.515625 -8.941406 4.171875 -8.78125 3.890625 -8.5 C 3.617188 -8.226562 3.421875 -7.894531 3.296875 -7.5 C 3.179688 -7.113281 3.144531 -6.734375 3.1875 -6.359375 C 3.1875 -6.316406 3.191406 -6.269531 3.203125 -6.21875 C 3.210938 -6.164062 3.222656 -6.113281 3.234375 -6.0625 C 3.390625 -6.070312 3.539062 -6.078125 3.6875 -6.078125 C 3.84375 -6.085938 3.992188 -6.101562 4.140625 -6.125 Z M 3.96875 -3.109375 C 4.476562 -2.523438 5.082031 -2.0625 5.78125 -1.71875 C 6.488281 -1.382812 7.222656 -1.207031 7.984375 -1.1875 L 8.359375 2.28125 C 7.253906 2.28125 6.207031 2.050781 5.21875 1.59375 C 4.238281 1.132812 3.382812 0.507812 2.65625 -0.28125 C 1.9375 -1.070312 1.382812 -1.957031 1 -2.9375 C 1.476562 -2.925781 1.878906 -2.921875 2.203125 -2.921875 C 2.523438 -2.929688 2.820312 -2.953125 3.09375 -2.984375 C 3.238281 -2.992188 3.378906 -3.007812 3.515625 -3.03125 C 3.660156 -3.0625 3.8125 -3.085938 3.96875 -3.109375 Z M 3.96875 -3.109375 "/></g></g><g style="fill:#d8ff00;fill-opacity:1;"><g transform="translate(58.205892, 33.541518)"><path style="stroke:none" d="M 6.65625 -9.09375 C 7.445312 -9.1875 8.078125 -9.023438 8.546875 -8.609375 C 9.015625 -8.203125 9.347656 -7.613281 9.546875 -6.84375 C 9.742188 -6.082031 9.800781 -5.203125 9.71875 -4.203125 C 9.632812 -3.210938 9.429688 -2.175781 9.109375 -1.09375 C 8.785156 -0.0195312 8.34375 1.039062 7.78125 2.09375 L 4.15625 2.53125 C 4.4375 2 4.710938 1.414062 4.984375 0.78125 C 5.253906 0.144531 5.5 -0.492188 5.71875 -1.140625 C 5.945312 -1.785156 6.125 -2.40625 6.25 -3 C 6.375 -3.59375 6.429688 -4.125 6.421875 -4.59375 C 6.421875 -5.0625 6.332031 -5.421875 6.15625 -5.671875 C 5.988281 -5.921875 5.710938 -6.023438 5.328125 -5.984375 C 4.617188 -5.898438 4.082031 -5.578125 3.71875 -5.015625 C 3.363281 -4.460938 3.21875 -3.796875 3.28125 -3.015625 C 3.382812 -2.671875 3.492188 -2.316406 3.609375 -1.953125 C 3.722656 -1.597656 3.859375 -1.234375 4.015625 -0.859375 L 1.265625 -0.546875 C 0.597656 -2.109375 0.132812 -3.554688 -0.125 -4.890625 C -0.394531 -6.234375 -0.4375 -7.59375 -0.25 -8.96875 L 3.34375 -9.375 C 3.226562 -8.988281 3.132812 -8.585938 3.0625 -8.171875 C 2.988281 -7.753906 2.9375 -7.335938 2.90625 -6.921875 C 3.238281 -7.492188 3.707031 -7.976562 4.3125 -8.375 C 4.925781 -8.769531 5.707031 -9.007812 6.65625 -9.09375 Z M 6.65625 -9.09375 "/></g></g><g style="fill:#d8ff00;fill-opacity:1;"><g transform="translate(69.252289, 32.320744)"><path style="stroke:none" d="M 4.8125 -11.546875 C 5.800781 -11.648438 6.625 -11.566406 7.28125 -11.296875 C 7.945312 -11.023438 8.460938 -10.628906 8.828125 -10.109375 C 9.191406 -9.585938 9.410156 -8.984375 9.484375 -8.296875 C 9.578125 -7.523438 9.46875 -6.851562 9.15625 -6.28125 C 8.84375 -5.707031 8.390625 -5.226562 7.796875 -4.84375 C 7.203125 -4.46875 6.507812 -4.164062 5.71875 -3.9375 C 4.9375 -3.707031 4.117188 -3.539062 3.265625 -3.4375 C 2.703125 -3.382812 2.128906 -3.347656 1.546875 -3.328125 C 0.960938 -3.304688 0.382812 -3.304688 -0.1875 -3.328125 L -0.53125 -6.359375 C -0.351562 -6.335938 -0.179688 -6.3125 -0.015625 -6.28125 C 0.148438 -6.257812 0.328125 -6.238281 0.515625 -6.21875 C 0.460938 -7.15625 0.613281 -8.003906 0.96875 -8.765625 C 1.320312 -9.523438 1.828125 -10.148438 2.484375 -10.640625 C 3.140625 -11.140625 3.914062 -11.441406 4.8125 -11.546875 Z M 4.140625 -6.125 C 4.609375 -6.175781 5.03125 -6.269531 5.40625 -6.40625 C 5.789062 -6.550781 6.09375 -6.742188 6.3125 -6.984375 C 6.539062 -7.222656 6.632812 -7.523438 6.59375 -7.890625 C 6.550781 -8.265625 6.359375 -8.550781 6.015625 -8.75 C 5.679688 -8.957031 5.316406 -9.035156 4.921875 -8.984375 C 4.515625 -8.941406 4.171875 -8.78125 3.890625 -8.5 C 3.617188 -8.226562 3.421875 -7.894531 3.296875 -7.5 C 3.179688 -7.113281 3.144531 -6.734375 3.1875 -6.359375 C 3.1875 -6.316406 3.191406 -6.269531 3.203125 -6.21875 C 3.210938 -6.164062 3.222656 -6.113281 3.234375 -6.0625 C 3.390625 -6.070312 3.539062 -6.078125 3.6875 -6.078125 C 3.84375 -6.085938 3.992188 -6.101562 4.140625 -6.125 Z M 3.96875 -3.109375 C 4.476562 -2.523438 5.082031 -2.0625 5.78125 -1.71875 C 6.488281 -1.382812 7.222656 -1.207031 7.984375 -1.1875 L 8.359375 2.28125 C 7.253906 2.28125 6.207031 2.050781 5.21875 1.59375 C 4.238281 1.132812 3.382812 0.507812 2.65625 -0.28125 C 1.9375 -1.070312 1.382812 -1.957031 1 -2.9375 C 1.476562 -2.925781 1.878906 -2.921875 2.203125 -2.921875 C 2.523438 -2.929688 2.820312 -2.953125 3.09375 -2.984375 C 3.238281 -2.992188 3.378906 -3.007812 3.515625 -3.03125 C 3.660156 -3.0625 3.8125 -3.085938 3.96875 -3.109375 Z M 3.96875 -3.109375 "/></g></g><g style="fill:#171616;fill-opacity:1;"><g transform="translate(38.66364, 36.010747)"><path style="stroke:none" d="M 6.578125 -9.09375 C 7.367188 -9.175781 8.019531 -8.984375 8.53125 -8.515625 C 9.039062 -8.046875 9.410156 -7.390625 9.640625 -6.546875 C 9.867188 -5.710938 9.9375 -4.765625 9.84375 -3.703125 L 6.453125 -3.328125 C 6.515625 -3.859375 6.523438 -4.328125 6.484375 -4.734375 C 6.453125 -5.148438 6.351562 -5.472656 6.1875 -5.703125 C 6.019531 -5.929688 5.765625 -6.03125 5.421875 -6 C 4.921875 -5.9375 4.503906 -5.703125 4.171875 -5.296875 C 3.835938 -4.890625 3.601562 -4.382812 3.46875 -3.78125 C 3.332031 -3.1875 3.316406 -2.5625 3.421875 -1.90625 C 3.609375 -1.34375 3.832031 -0.757812 4.09375 -0.15625 L 1.46875 0.140625 C 0.75 -1.398438 0.234375 -2.894531 -0.078125 -4.34375 C -0.398438 -5.800781 -0.492188 -7.21875 -0.359375 -8.59375 L 3.078125 -8.96875 C 2.972656 -8.550781 2.890625 -8.113281 2.828125 -7.65625 C 2.773438 -7.195312 2.75 -6.734375 2.75 -6.265625 C 3.039062 -6.992188 3.492188 -7.625 4.109375 -8.15625 C 4.722656 -8.695312 5.546875 -9.007812 6.578125 -9.09375 Z M 6.578125 -9.09375 "/></g></g><g style="fill:#171616;fill-opacity:1;"><g transform="translate(49.319328, 34.833152)"><path style="stroke:none" d="M 4.8125 -11.546875 C 5.800781 -11.648438 6.625 -11.566406 7.28125 -11.296875 C 7.945312 -11.023438 8.460938 -10.628906 8.828125 -10.109375 C 9.191406 -9.585938 9.410156 -8.984375 9.484375 -8.296875 C 9.578125 -7.523438 9.46875 -6.851562 9.15625 -6.28125 C 8.84375 -5.707031 8.390625 -5.226562 7.796875 -4.84375 C 7.203125 -4.46875 6.507812 -4.164062 5.71875 -3.9375 C 4.9375 -3.707031 4.117188 -3.539062 3.265625 -3.4375 C 2.703125 -3.382812 2.128906 -3.347656 1.546875 -3.328125 C 0.960938 -3.304688 0.382812 -3.304688 -0.1875 -3.328125 L -0.53125 -6.359375 C -0.351562 -6.335938 -0.179688 -6.3125 -0.015625 -6.28125 C 0.148438 -6.257812 0.328125 -6.238281 0.515625 -6.21875 C 0.460938 -7.15625 0.613281 -8.003906 0.96875 -8.765625 C 1.320312 -9.523438 1.828125 -10.148438 2.484375 -10.640625 C 3.140625 -11.140625 3.914062 -11.441406 4.8125 -11.546875 Z M 4.140625 -6.125 C 4.609375 -6.175781 5.03125 -6.269531 5.40625 -6.40625 C 5.789062 -6.550781 6.09375 -6.742188 6.3125 -6.984375 C 6.539062 -7.222656 6.632812 -7.523438 6.59375 -7.890625 C 6.550781 -8.265625 6.359375 -8.550781 6.015625 -8.75 C 5.679688 -8.957031 5.316406 -9.035156 4.921875 -8.984375 C 4.515625 -8.941406 4.171875 -8.78125 3.890625 -8.5 C 3.617188 -8.226562 3.421875 -7.894531 3.296875 -7.5 C 3.179688 -7.113281 3.144531 -6.734375 3.1875 -6.359375 C 3.1875 -6.316406 3.191406 -6.269531 3.203125 -6.21875 C 3.210938 -6.164062 3.222656 -6.113281 3.234375 -6.0625 C 3.390625 -6.070312 3.539062 -6.078125 3.6875 -6.078125 C 3.84375 -6.085938 3.992188 -6.101562 4.140625 -6.125 Z M 3.96875 -3.109375 C 4.476562 -2.523438 5.082031 -2.0625 5.78125 -1.71875 C 6.488281 -1.382812 7.222656 -1.207031 7.984375 -1.1875 L 8.359375 2.28125 C 7.253906 2.28125 6.207031 2.050781 5.21875 1.59375 C 4.238281 1.132812 3.382812 0.507812 2.65625 -0.28125 C 1.9375 -1.070312 1.382812 -1.957031 1 -2.9375 C 1.476562 -2.925781 1.878906 -2.921875 2.203125 -2.921875 C 2.523438 -2.929688 2.820312 -2.953125 3.09375 -2.984375 C 3.238281 -2.992188 3.378906 -3.007812 3.515625 -3.03125 C 3.660156 -3.0625 3.8125 -3.085938 3.96875 -3.109375 Z M 3.96875 -3.109375 "/></g></g><g style="fill:#171616;fill-opacity:1;"><g transform="translate(59.975015, 33.655557)"><path style="stroke:none" d="M 6.65625 -9.09375 C 7.445312 -9.1875 8.078125 -9.023438 8.546875 -8.609375 C 9.015625 -8.203125 9.347656 -7.613281 9.546875 -6.84375 C 9.742188 -6.082031 9.800781 -5.203125 9.71875 -4.203125 C 9.632812 -3.210938 9.429688 -2.175781 9.109375 -1.09375 C 8.785156 -0.0195312 8.34375 1.039062 7.78125 2.09375 L 4.15625 2.53125 C 4.4375 2 4.710938 1.414062 4.984375 0.78125 C 5.253906 0.144531 5.5 -0.492188 5.71875 -1.140625 C 5.945312 -1.785156 6.125 -2.40625 6.25 -3 C 6.375 -3.59375 6.429688 -4.125 6.421875 -4.59375 C 6.421875 -5.0625 6.332031 -5.421875 6.15625 -5.671875 C 5.988281 -5.921875 5.710938 -6.023438 5.328125 -5.984375 C 4.617188 -5.898438 4.082031 -5.578125 3.71875 -5.015625 C 3.363281 -4.460938 3.21875 -3.796875 3.28125 -3.015625 C 3.382812 -2.671875 3.492188 -2.316406 3.609375 -1.953125 C 3.722656 -1.597656 3.859375 -1.234375 4.015625 -0.859375 L 1.265625 -0.546875 C 0.597656 -2.109375 0.132812 -3.554688 -0.125 -4.890625 C -0.394531 -6.234375 -0.4375 -7.59375 -0.25 -8.96875 L 3.34375 -9.375 C 3.226562 -8.988281 3.132812 -8.585938 3.0625 -8.171875 C 2.988281 -7.753906 2.9375 -7.335938 2.90625 -6.921875 C 3.238281 -7.492188 3.707031 -7.976562 4.3125 -8.375 C 4.925781 -8.769531 5.707031 -9.007812 6.65625 -9.09375 Z M 6.65625 -9.09375 "/></g></g><g style="fill:#171616;fill-opacity:1;"><g transform="translate(71.021412, 32.434784)"><path style="stroke:none" d="M 4.8125 -11.546875 C 5.800781 -11.648438 6.625 -11.566406 7.28125 -11.296875 C 7.945312 -11.023438 8.460938 -10.628906 8.828125 -10.109375 C 9.191406 -9.585938 9.410156 -8.984375 9.484375 -8.296875 C 9.578125 -7.523438 9.46875 -6.851562 9.15625 -6.28125 C 8.84375 -5.707031 8.390625 -5.226562 7.796875 -4.84375 C 7.203125 -4.46875 6.507812 -4.164062 5.71875 -3.9375 C 4.9375 -3.707031 4.117188 -3.539062 3.265625 -3.4375 C 2.703125 -3.382812 2.128906 -3.347656 1.546875 -3.328125 C 0.960938 -3.304688 0.382812 -3.304688 -0.1875 -3.328125 L -0.53125 -6.359375 C -0.351562 -6.335938 -0.179688 -6.3125 -0.015625 -6.28125 C 0.148438 -6.257812 0.328125 -6.238281 0.515625 -6.21875 C 0.460938 -7.15625 0.613281 -8.003906 0.96875 -8.765625 C 1.320312 -9.523438 1.828125 -10.148438 2.484375 -10.640625 C 3.140625 -11.140625 3.914062 -11.441406 4.8125 -11.546875 Z M 4.140625 -6.125 C 4.609375 -6.175781 5.03125 -6.269531 5.40625 -6.40625 C 5.789062 -6.550781 6.09375 -6.742188 6.3125 -6.984375 C 6.539062 -7.222656 6.632812 -7.523438 6.59375 -7.890625 C 6.550781 -8.265625 6.359375 -8.550781 6.015625 -8.75 C 5.679688 -8.957031 5.316406 -9.035156 4.921875 -8.984375 C 4.515625 -8.941406 4.171875 -8.78125 3.890625 -8.5 C 3.617188 -8.226562 3.421875 -7.894531 3.296875 -7.5 C 3.179688 -7.113281 3.144531 -6.734375 3.1875 -6.359375 C 3.1875 -6.316406 3.191406 -6.269531 3.203125 -6.21875 C 3.210938 -6.164062 3.222656 -6.113281 3.234375 -6.0625 C 3.390625 -6.070312 3.539062 -6.078125 3.6875 -6.078125 C 3.84375 -6.085938 3.992188 -6.101562 4.140625 -6.125 Z M 3.96875 -3.109375 C 4.476562 -2.523438 5.082031 -2.0625 5.78125 -1.71875 C 6.488281 -1.382812 7.222656 -1.207031 7.984375 -1.1875 L 8.359375 2.28125 C 7.253906 2.28125 6.207031 2.050781 5.21875 1.59375 C 4.238281 1.132812 3.382812 0.507812 2.65625 -0.28125 C 1.9375 -1.070312 1.382812 -1.957031 1 -2.9375 C 1.476562 -2.925781 1.878906 -2.921875 2.203125 -2.921875 C 2.523438 -2.929688 2.820312 -2.953125 3.09375 -2.984375 C 3.238281 -2.992188 3.378906 -3.007812 3.515625 -3.03125 C 3.660156 -3.0625 3.8125 -3.085938 3.96875 -3.109375 Z M 3.96875 -3.109375 "/></g></g><g style="fill:#171616;fill-opacity:1;"><g transform="translate(17.486113, 37.293632)"><path style="stroke:none" d="M -3.28125 4.078125 C -3.28125 2.523438 -2.960938 1.238281 -2.328125 0.21875 C -1.691406 -0.800781 -0.828125 -1.601562 0.265625 -2.1875 C 1.359375 -2.769531 2.613281 -3.164062 4.03125 -3.375 C 5.457031 -3.582031 6.96875 -3.644531 8.5625 -3.5625 C 10.15625 -3.488281 11.757812 -3.304688 13.375 -3.015625 C 13.414062 -3.347656 13.441406 -3.679688 13.453125 -4.015625 C 13.472656 -4.359375 13.492188 -4.71875 13.515625 -5.09375 C 13.535156 -6.125 13.410156 -7.164062 13.140625 -8.21875 C 12.878906 -9.269531 12.5 -10.238281 12 -11.125 C 11.5 -12.007812 10.90625 -12.71875 10.21875 -13.25 C 9.539062 -13.789062 8.796875 -14.0625 7.984375 -14.0625 C 7.046875 -14.0625 6.285156 -13.84375 5.703125 -13.40625 C 5.117188 -12.96875 4.828125 -12.378906 4.828125 -11.640625 C 4.828125 -10.953125 5.117188 -10.378906 5.703125 -9.921875 C 6.285156 -9.460938 7.046875 -9.234375 7.984375 -9.234375 C 8.554688 -9.234375 9.148438 -9.332031 9.765625 -9.53125 C 10.378906 -9.726562 10.984375 -9.984375 11.578125 -10.296875 C 11.878906 -9.679688 12.128906 -9 12.328125 -8.25 C 12.523438 -7.507812 12.65625 -6.753906 12.71875 -5.984375 C 11.925781 -5.671875 11.09375 -5.425781 10.21875 -5.25 C 9.34375 -5.082031 8.546875 -5 7.828125 -5 C 6.304688 -5 4.941406 -5.304688 3.734375 -5.921875 C 2.535156 -6.535156 1.585938 -7.34375 0.890625 -8.34375 C 0.191406 -9.351562 -0.15625 -10.453125 -0.15625 -11.640625 C -0.15625 -12.835938 0.191406 -13.941406 0.890625 -14.953125 C 1.585938 -15.960938 2.535156 -16.773438 3.734375 -17.390625 C 4.941406 -18.003906 6.304688 -18.3125 7.828125 -18.3125 C 9.421875 -18.3125 10.867188 -18.007812 12.171875 -17.40625 C 13.484375 -16.800781 14.597656 -15.863281 15.515625 -14.59375 C 15.890625 -15.34375 16.175781 -16.160156 16.375 -17.046875 C 16.570312 -17.929688 16.671875 -18.890625 16.671875 -19.921875 L 23.015625 -19.921875 C 23.015625 -17.441406 22.554688 -15.273438 21.640625 -13.421875 C 20.734375 -11.578125 19.476562 -10.019531 17.875 -8.75 C 18.050781 -7.664062 18.140625 -6.515625 18.140625 -5.296875 C 18.140625 -2.953125 17.898438 -0.765625 17.421875 1.265625 C 16.941406 3.296875 16.207031 5.082031 15.21875 6.625 C 14.226562 8.164062 12.957031 9.367188 11.40625 10.234375 C 9.851562 11.097656 8.003906 11.53125 5.859375 11.53125 C 3.972656 11.53125 2.34375 11.207031 0.96875 10.5625 C -0.394531 9.914062 -1.441406 9.023438 -2.171875 7.890625 C -2.910156 6.753906 -3.28125 5.484375 -3.28125 4.078125 Z M 17.71875 3.640625 C 18 2.835938 18.226562 2.015625 18.40625 1.171875 C 18.582031 0.328125 18.722656 -0.546875 18.828125 -1.453125 C 20.296875 -0.941406 21.800781 -0.265625 23.34375 0.578125 C 24.894531 1.421875 26.472656 2.429688 28.078125 3.609375 L 28.078125 11.765625 C 25.941406 9.816406 24.03125 8.179688 22.34375 6.859375 C 20.664062 5.546875 19.125 4.472656 17.71875 3.640625 Z M 1.875 3.6875 C 1.875 4.582031 2.175781 5.320312 2.78125 5.90625 C 3.382812 6.5 4.421875 6.796875 5.890625 6.796875 C 7.359375 6.796875 8.671875 6.28125 9.828125 5.25 C 10.984375 4.226562 11.835938 2.925781 12.390625 1.34375 C 11.273438 1.039062 10.109375 0.828125 8.890625 0.703125 C 7.671875 0.585938 6.53125 0.59375 5.46875 0.71875 C 4.40625 0.851562 3.539062 1.160156 2.875 1.640625 C 2.207031 2.117188 1.875 2.800781 1.875 3.6875 Z M 1.875 3.6875 "/></g></g></g></svg>