<svg xmlns="http://www.w3.org/2000/svg" xmlns:xlink="http://www.w3.org/1999/xlink" width="187" zoomAndPan="magnify" viewBox="0 0 140.25 131.249995" height="175" preserveAspectRatio="xMidYMid meet" version="1.2"><defs/><g id="27c2d3913d"><g style="fill:#171616;fill-opacity:1;"><g transform="translate(34.084598, 73.802189)"><path style="stroke:none" d="M -4.921875 7.71875 C -5.210938 5.03125 -4.898438 2.734375 -3.984375 0.828125 C -3.078125 -1.066406 -1.734375 -2.628906 0.046875 -3.859375 C 1.828125 -5.085938 3.929688 -6.019531 6.359375 -6.65625 C 8.796875 -7.289062 11.410156 -7.691406 14.203125 -7.859375 C 16.992188 -8.035156 19.816406 -8.015625 22.671875 -7.796875 C 22.679688 -8.398438 22.671875 -8.992188 22.640625 -9.578125 C 22.609375 -10.171875 22.570312 -10.796875 22.53125 -11.453125 C 22.363281 -13.253906 21.945312 -15.039062 21.28125 -16.8125 C 20.613281 -18.59375 19.765625 -20.203125 18.734375 -21.640625 C 17.703125 -23.085938 16.539062 -24.207031 15.25 -25 C 13.957031 -25.800781 12.601562 -26.125 11.1875 -25.96875 C 9.5625 -25.789062 8.28125 -25.265625 7.34375 -24.390625 C 6.40625 -23.515625 6.007812 -22.441406 6.15625 -21.171875 C 6.289062 -19.960938 6.910156 -19.019531 8.015625 -18.34375 C 9.117188 -17.664062 10.484375 -17.414062 12.109375 -17.59375 C 13.097656 -17.707031 14.109375 -17.992188 15.140625 -18.453125 C 16.179688 -18.910156 17.1875 -19.472656 18.15625 -20.140625 C 18.800781 -19.140625 19.363281 -18.003906 19.84375 -16.734375 C 20.332031 -15.472656 20.703125 -14.175781 20.953125 -12.84375 C 19.640625 -12.144531 18.238281 -11.566406 16.75 -11.109375 C 15.257812 -10.648438 13.894531 -10.347656 12.65625 -10.203125 C 9.988281 -9.910156 7.554688 -10.179688 5.359375 -11.015625 C 3.160156 -11.859375 1.359375 -13.082031 -0.046875 -14.6875 C -1.453125 -16.300781 -2.269531 -18.144531 -2.5 -20.21875 C -2.726562 -22.289062 -2.332031 -24.273438 -1.3125 -26.171875 C -0.300781 -28.066406 1.1875 -29.664062 3.15625 -30.96875 C 5.125 -32.269531 7.441406 -33.066406 10.109375 -33.359375 C 12.867188 -33.671875 15.441406 -33.425781 17.828125 -32.625 C 20.222656 -31.820312 22.34375 -30.398438 24.1875 -28.359375 C 24.695312 -29.742188 25.039062 -31.222656 25.21875 -32.796875 C 25.394531 -34.378906 25.382812 -36.0625 25.1875 -37.84375 L 36.203125 -39.0625 C 36.679688 -34.75 36.300781 -30.898438 35.0625 -27.515625 C 33.832031 -24.128906 31.941406 -21.175781 29.390625 -18.65625 C 29.910156 -16.789062 30.289062 -14.804688 30.53125 -12.703125 C 30.976562 -8.628906 30.984375 -4.773438 30.546875 -1.140625 C 30.109375 2.492188 29.171875 5.742188 27.734375 8.609375 C 26.304688 11.472656 24.328125 13.800781 21.796875 15.59375 C 19.273438 17.394531 16.148438 18.503906 12.421875 18.921875 C 9.140625 19.285156 6.242188 19.035156 3.734375 18.171875 C 1.234375 17.304688 -0.765625 15.960938 -2.265625 14.140625 C -3.765625 12.316406 -4.648438 10.175781 -4.921875 7.71875 Z M 31.515625 2.921875 C 31.847656 1.472656 32.085938 0 32.234375 -1.5 C 32.378906 -3 32.453125 -4.550781 32.453125 -6.15625 C 35.117188 -5.550781 37.878906 -4.660156 40.734375 -3.484375 C 43.585938 -2.304688 46.519531 -0.847656 49.53125 0.890625 L 51.109375 15.0625 C 47.003906 12.082031 43.363281 9.609375 40.1875 7.640625 C 37.019531 5.671875 34.128906 4.097656 31.515625 2.921875 Z M 3.96875 6.0625 C 4.144531 7.625 4.8125 8.851562 5.96875 9.75 C 7.132812 10.644531 8.992188 10.953125 11.546875 10.671875 C 14.109375 10.378906 16.289062 9.234375 18.09375 7.234375 C 19.90625 5.242188 21.140625 2.816406 21.796875 -0.046875 C 19.816406 -0.359375 17.75 -0.5 15.59375 -0.46875 C 13.445312 -0.4375 11.460938 -0.210938 9.640625 0.203125 C 7.816406 0.628906 6.375 1.320312 5.3125 2.28125 C 4.25 3.238281 3.800781 4.5 3.96875 6.0625 Z M 3.96875 6.0625 "/></g></g><g style="fill:#171616;fill-opacity:1;"><g transform="translate(66.618673, 65.449094)"><path style="stroke:none" d="M 8.203125 -11.34375 C 9.191406 -11.457031 10.003906 -11.222656 10.640625 -10.640625 C 11.285156 -10.066406 11.75 -9.25 12.03125 -8.1875 C 12.3125 -7.132812 12.398438 -5.945312 12.296875 -4.625 L 8.0625 -4.15625 C 8.144531 -4.8125 8.164062 -5.398438 8.125 -5.921875 C 8.082031 -6.453125 7.957031 -6.859375 7.75 -7.140625 C 7.539062 -7.421875 7.210938 -7.535156 6.765625 -7.484375 C 6.140625 -7.410156 5.617188 -7.125 5.203125 -6.625 C 4.785156 -6.132812 4.488281 -5.507812 4.3125 -4.75 C 4.144531 -3.988281 4.128906 -3.207031 4.265625 -2.40625 C 4.492188 -1.675781 4.78125 -0.9375 5.125 -0.1875 L 1.84375 0.171875 C 0.9375 -1.753906 0.285156 -3.625 -0.109375 -5.4375 C -0.503906 -7.25 -0.617188 -9.015625 -0.453125 -10.734375 L 3.84375 -11.203125 C 3.695312 -10.671875 3.59375 -10.125 3.53125 -9.5625 C 3.46875 -9 3.429688 -8.414062 3.421875 -7.8125 C 3.804688 -8.738281 4.378906 -9.535156 5.140625 -10.203125 C 5.910156 -10.878906 6.929688 -11.257812 8.203125 -11.34375 Z M 8.203125 -11.34375 "/></g></g><g style="fill:#171616;fill-opacity:1;"><g transform="translate(79.93295, 63.97769)"><path style="stroke:none" d="M 6 -14.421875 C 7.238281 -14.554688 8.273438 -14.453125 9.109375 -14.109375 C 9.941406 -13.773438 10.582031 -13.28125 11.03125 -12.625 C 11.488281 -11.976562 11.765625 -11.226562 11.859375 -10.375 C 11.960938 -9.394531 11.820312 -8.546875 11.4375 -7.828125 C 11.0625 -7.117188 10.492188 -6.523438 9.734375 -6.046875 C 8.984375 -5.566406 8.117188 -5.179688 7.140625 -4.890625 C 6.171875 -4.609375 5.148438 -4.410156 4.078125 -4.296875 C 3.390625 -4.210938 2.675781 -4.160156 1.9375 -4.140625 C 1.207031 -4.117188 0.484375 -4.125 -0.234375 -4.15625 L -0.65625 -7.953125 C -0.4375 -7.910156 -0.222656 -7.875 -0.015625 -7.84375 C 0.191406 -7.8125 0.398438 -7.785156 0.609375 -7.765625 C 0.554688 -8.929688 0.753906 -9.992188 1.203125 -10.953125 C 1.648438 -11.910156 2.285156 -12.695312 3.109375 -13.3125 C 3.929688 -13.925781 4.894531 -14.296875 6 -14.421875 Z M 5.1875 -7.640625 C 5.769531 -7.703125 6.296875 -7.820312 6.765625 -8 C 7.242188 -8.175781 7.617188 -8.414062 7.890625 -8.71875 C 8.160156 -9.03125 8.269531 -9.414062 8.21875 -9.875 C 8.175781 -10.320312 7.945312 -10.671875 7.53125 -10.921875 C 7.113281 -11.171875 6.648438 -11.269531 6.140625 -11.21875 C 5.640625 -11.15625 5.21875 -10.953125 4.875 -10.609375 C 4.539062 -10.265625 4.296875 -9.851562 4.140625 -9.375 C 3.992188 -8.894531 3.945312 -8.414062 4 -7.9375 C 4 -7.882812 4 -7.828125 4 -7.765625 C 4.007812 -7.703125 4.03125 -7.632812 4.0625 -7.5625 C 4.25 -7.570312 4.4375 -7.582031 4.625 -7.59375 C 4.820312 -7.601562 5.007812 -7.617188 5.1875 -7.640625 Z M 4.96875 -3.90625 C 5.601562 -3.15625 6.359375 -2.566406 7.234375 -2.140625 C 8.109375 -1.722656 9.015625 -1.503906 9.953125 -1.484375 L 10.4375 2.828125 C 9.050781 2.847656 7.742188 2.566406 6.515625 1.984375 C 5.285156 1.398438 4.222656 0.617188 3.328125 -0.359375 C 2.429688 -1.335938 1.738281 -2.441406 1.25 -3.671875 C 1.851562 -3.660156 2.351562 -3.65625 2.75 -3.65625 C 3.15625 -3.664062 3.523438 -3.691406 3.859375 -3.734375 C 4.035156 -3.753906 4.210938 -3.773438 4.390625 -3.796875 C 4.578125 -3.828125 4.769531 -3.863281 4.96875 -3.90625 Z M 4.96875 -3.90625 "/></g></g><g style="fill:#171616;fill-opacity:1;"><g transform="translate(93.247227, 62.506285)"><path style="stroke:none" d="M 8.3125 -11.359375 C 9.289062 -11.460938 10.078125 -11.257812 10.671875 -10.75 C 11.265625 -10.25 11.679688 -9.519531 11.921875 -8.5625 C 12.171875 -7.601562 12.242188 -6.503906 12.140625 -5.265625 C 12.035156 -4.023438 11.78125 -2.726562 11.375 -1.375 C 10.96875 -0.03125 10.414062 1.296875 9.71875 2.609375 L 5.171875 3.15625 C 5.546875 2.507812 5.898438 1.785156 6.234375 0.984375 C 6.566406 0.191406 6.867188 -0.601562 7.140625 -1.40625 C 7.421875 -2.21875 7.640625 -2.992188 7.796875 -3.734375 C 7.960938 -4.484375 8.039062 -5.148438 8.03125 -5.734375 C 8.03125 -6.316406 7.921875 -6.765625 7.703125 -7.078125 C 7.492188 -7.390625 7.144531 -7.519531 6.65625 -7.46875 C 5.789062 -7.375 5.128906 -6.972656 4.671875 -6.265625 C 4.210938 -5.566406 4.019531 -4.738281 4.09375 -3.78125 C 4.207031 -3.34375 4.335938 -2.894531 4.484375 -2.4375 C 4.640625 -1.988281 4.816406 -1.535156 5.015625 -1.078125 L 1.578125 -0.703125 C 0.742188 -2.640625 0.164062 -4.441406 -0.15625 -6.109375 C -0.488281 -7.785156 -0.539062 -9.484375 -0.3125 -11.203125 L 4.1875 -11.703125 C 4.039062 -11.210938 3.921875 -10.710938 3.828125 -10.203125 C 3.742188 -9.691406 3.675781 -9.171875 3.625 -8.640625 C 4.050781 -9.359375 4.640625 -9.960938 5.390625 -10.453125 C 6.148438 -10.953125 7.125 -11.253906 8.3125 -11.359375 Z M 8.3125 -11.359375 "/></g></g><g style="fill:#171616;fill-opacity:1;"><g transform="translate(107.049687, 60.98093)"><path style="stroke:none" d="M 6 -14.421875 C 7.238281 -14.554688 8.273438 -14.453125 9.109375 -14.109375 C 9.941406 -13.773438 10.582031 -13.28125 11.03125 -12.625 C 11.488281 -11.976562 11.765625 -11.226562 11.859375 -10.375 C 11.960938 -9.394531 11.820312 -8.546875 11.4375 -7.828125 C 11.0625 -7.117188 10.492188 -6.523438 9.734375 -6.046875 C 8.984375 -5.566406 8.117188 -5.179688 7.140625 -4.890625 C 6.171875 -4.609375 5.148438 -4.410156 4.078125 -4.296875 C 3.390625 -4.210938 2.675781 -4.160156 1.9375 -4.140625 C 1.207031 -4.117188 0.484375 -4.125 -0.234375 -4.15625 L -0.65625 -7.953125 C -0.4375 -7.910156 -0.222656 -7.875 -0.015625 -7.84375 C 0.191406 -7.8125 0.398438 -7.785156 0.609375 -7.765625 C 0.554688 -8.929688 0.753906 -9.992188 1.203125 -10.953125 C 1.648438 -11.910156 2.285156 -12.695312 3.109375 -13.3125 C 3.929688 -13.925781 4.894531 -14.296875 6 -14.421875 Z M 5.1875 -7.640625 C 5.769531 -7.703125 6.296875 -7.820312 6.765625 -8 C 7.242188 -8.175781 7.617188 -8.414062 7.890625 -8.71875 C 8.160156 -9.03125 8.269531 -9.414062 8.21875 -9.875 C 8.175781 -10.320312 7.945312 -10.671875 7.53125 -10.921875 C 7.113281 -11.171875 6.648438 -11.269531 6.140625 -11.21875 C 5.640625 -11.15625 5.21875 -10.953125 4.875 -10.609375 C 4.539062 -10.265625 4.296875 -9.851562 4.140625 -9.375 C 3.992188 -8.894531 3.945312 -8.414062 4 -7.9375 C 4 -7.882812 4 -7.828125 4 -7.765625 C 4.007812 -7.703125 4.03125 -7.632812 4.0625 -7.5625 C 4.25 -7.570312 4.4375 -7.582031 4.625 -7.59375 C 4.820312 -7.601562 5.007812 -7.617188 5.1875 -7.640625 Z M 4.96875 -3.90625 C 5.601562 -3.15625 6.359375 -2.566406 7.234375 -2.140625 C 8.109375 -1.722656 9.015625 -1.503906 9.953125 -1.484375 L 10.4375 2.828125 C 9.050781 2.847656 7.742188 2.566406 6.515625 1.984375 C 5.285156 1.398438 4.222656 0.617188 3.328125 -0.359375 C 2.429688 -1.335938 1.738281 -2.441406 1.25 -3.671875 C 1.851562 -3.660156 2.351562 -3.65625 2.75 -3.65625 C 3.15625 -3.664062 3.523438 -3.691406 3.859375 -3.734375 C 4.035156 -3.753906 4.210938 -3.773438 4.390625 -3.796875 C 4.578125 -3.828125 4.769531 -3.863281 4.96875 -3.90625 Z M 4.96875 -3.90625 "/></g></g><g style="fill:#d8ff00;fill-opacity:1;"><g transform="translate(34.094531, 76.908885)"><path style="stroke:none" d="M -4.921875 7.71875 C -5.210938 5.03125 -4.898438 2.734375 -3.984375 0.828125 C -3.078125 -1.066406 -1.734375 -2.628906 0.046875 -3.859375 C 1.828125 -5.085938 3.929688 -6.019531 6.359375 -6.65625 C 8.796875 -7.289062 11.410156 -7.691406 14.203125 -7.859375 C 16.992188 -8.035156 19.816406 -8.015625 22.671875 -7.796875 C 22.679688 -8.398438 22.671875 -8.992188 22.640625 -9.578125 C 22.609375 -10.171875 22.570312 -10.796875 22.53125 -11.453125 C 22.363281 -13.253906 21.945312 -15.039062 21.28125 -16.8125 C 20.613281 -18.59375 19.765625 -20.203125 18.734375 -21.640625 C 17.703125 -23.085938 16.539062 -24.207031 15.25 -25 C 13.957031 -25.800781 12.601562 -26.125 11.1875 -25.96875 C 9.5625 -25.789062 8.28125 -25.265625 7.34375 -24.390625 C 6.40625 -23.515625 6.007812 -22.441406 6.15625 -21.171875 C 6.289062 -19.960938 6.910156 -19.019531 8.015625 -18.34375 C 9.117188 -17.664062 10.484375 -17.414062 12.109375 -17.59375 C 13.097656 -17.707031 14.109375 -17.992188 15.140625 -18.453125 C 16.179688 -18.910156 17.1875 -19.472656 18.15625 -20.140625 C 18.800781 -19.140625 19.363281 -18.003906 19.84375 -16.734375 C 20.332031 -15.472656 20.703125 -14.175781 20.953125 -12.84375 C 19.640625 -12.144531 18.238281 -11.566406 16.75 -11.109375 C 15.257812 -10.648438 13.894531 -10.347656 12.65625 -10.203125 C 9.988281 -9.910156 7.554688 -10.179688 5.359375 -11.015625 C 3.160156 -11.859375 1.359375 -13.082031 -0.046875 -14.6875 C -1.453125 -16.300781 -2.269531 -18.144531 -2.5 -20.21875 C -2.726562 -22.289062 -2.332031 -24.273438 -1.3125 -26.171875 C -0.300781 -28.066406 1.1875 -29.664062 3.15625 -30.96875 C 5.125 -32.269531 7.441406 -33.066406 10.109375 -33.359375 C 12.867188 -33.671875 15.441406 -33.425781 17.828125 -32.625 C 20.222656 -31.820312 22.34375 -30.398438 24.1875 -28.359375 C 24.695312 -29.742188 25.039062 -31.222656 25.21875 -32.796875 C 25.394531 -34.378906 25.382812 -36.0625 25.1875 -37.84375 L 36.203125 -39.0625 C 36.679688 -34.75 36.300781 -30.898438 35.0625 -27.515625 C 33.832031 -24.128906 31.941406 -21.175781 29.390625 -18.65625 C 29.910156 -16.789062 30.289062 -14.804688 30.53125 -12.703125 C 30.976562 -8.628906 30.984375 -4.773438 30.546875 -1.140625 C 30.109375 2.492188 29.171875 5.742188 27.734375 8.609375 C 26.304688 11.472656 24.328125 13.800781 21.796875 15.59375 C 19.273438 17.394531 16.148438 18.503906 12.421875 18.921875 C 9.140625 19.285156 6.242188 19.035156 3.734375 18.171875 C 1.234375 17.304688 -0.765625 15.960938 -2.265625 14.140625 C -3.765625 12.316406 -4.648438 10.175781 -4.921875 7.71875 Z M 31.515625 2.921875 C 31.847656 1.472656 32.085938 0 32.234375 -1.5 C 32.378906 -3 32.453125 -4.550781 32.453125 -6.15625 C 35.117188 -5.550781 37.878906 -4.660156 40.734375 -3.484375 C 43.585938 -2.304688 46.519531 -0.847656 49.53125 0.890625 L 51.109375 15.0625 C 47.003906 12.082031 43.363281 9.609375 40.1875 7.640625 C 37.019531 5.671875 34.128906 4.097656 31.515625 2.921875 Z M 3.96875 6.0625 C 4.144531 7.625 4.8125 8.851562 5.96875 9.75 C 7.132812 10.644531 8.992188 10.953125 11.546875 10.671875 C 14.109375 10.378906 16.289062 9.234375 18.09375 7.234375 C 19.90625 5.242188 21.140625 2.816406 21.796875 -0.046875 C 19.816406 -0.359375 17.75 -0.5 15.59375 -0.46875 C 13.445312 -0.4375 11.460938 -0.210938 9.640625 0.203125 C 7.816406 0.628906 6.375 1.320312 5.3125 2.28125 C 4.25 3.238281 3.800781 4.5 3.96875 6.0625 Z M 3.96875 6.0625 "/></g></g><g style="fill:#d8ff00;fill-opacity:1;"><g transform="translate(66.618673, 68.465121)"><path style="stroke:none" d="M 8.203125 -11.34375 C 9.191406 -11.457031 10.003906 -11.222656 10.640625 -10.640625 C 11.285156 -10.066406 11.75 -9.25 12.03125 -8.1875 C 12.3125 -7.132812 12.398438 -5.945312 12.296875 -4.625 L 8.0625 -4.15625 C 8.144531 -4.8125 8.164062 -5.398438 8.125 -5.921875 C 8.082031 -6.453125 7.957031 -6.859375 7.75 -7.140625 C 7.539062 -7.421875 7.210938 -7.535156 6.765625 -7.484375 C 6.140625 -7.410156 5.617188 -7.125 5.203125 -6.625 C 4.785156 -6.132812 4.488281 -5.507812 4.3125 -4.75 C 4.144531 -3.988281 4.128906 -3.207031 4.265625 -2.40625 C 4.492188 -1.675781 4.78125 -0.9375 5.125 -0.1875 L 1.84375 0.171875 C 0.9375 -1.753906 0.285156 -3.625 -0.109375 -5.4375 C -0.503906 -7.25 -0.617188 -9.015625 -0.453125 -10.734375 L 3.84375 -11.203125 C 3.695312 -10.671875 3.59375 -10.125 3.53125 -9.5625 C 3.46875 -9 3.429688 -8.414062 3.421875 -7.8125 C 3.804688 -8.738281 4.378906 -9.535156 5.140625 -10.203125 C 5.910156 -10.878906 6.929688 -11.257812 8.203125 -11.34375 Z M 8.203125 -11.34375 "/></g></g><g style="fill:#d8ff00;fill-opacity:1;"><g transform="translate(79.93295, 66.993716)"><path style="stroke:none" d="M 6 -14.421875 C 7.238281 -14.554688 8.273438 -14.453125 9.109375 -14.109375 C 9.941406 -13.773438 10.582031 -13.28125 11.03125 -12.625 C 11.488281 -11.976562 11.765625 -11.226562 11.859375 -10.375 C 11.960938 -9.394531 11.820312 -8.546875 11.4375 -7.828125 C 11.0625 -7.117188 10.492188 -6.523438 9.734375 -6.046875 C 8.984375 -5.566406 8.117188 -5.179688 7.140625 -4.890625 C 6.171875 -4.609375 5.148438 -4.410156 4.078125 -4.296875 C 3.390625 -4.210938 2.675781 -4.160156 1.9375 -4.140625 C 1.207031 -4.117188 0.484375 -4.125 -0.234375 -4.15625 L -0.65625 -7.953125 C -0.4375 -7.910156 -0.222656 -7.875 -0.015625 -7.84375 C 0.191406 -7.8125 0.398438 -7.785156 0.609375 -7.765625 C 0.554688 -8.929688 0.753906 -9.992188 1.203125 -10.953125 C 1.648438 -11.910156 2.285156 -12.695312 3.109375 -13.3125 C 3.929688 -13.925781 4.894531 -14.296875 6 -14.421875 Z M 5.1875 -7.640625 C 5.769531 -7.703125 6.296875 -7.820312 6.765625 -8 C 7.242188 -8.175781 7.617188 -8.414062 7.890625 -8.71875 C 8.160156 -9.03125 8.269531 -9.414062 8.21875 -9.875 C 8.175781 -10.320312 7.945312 -10.671875 7.53125 -10.921875 C 7.113281 -11.171875 6.648438 -11.269531 6.140625 -11.21875 C 5.640625 -11.15625 5.21875 -10.953125 4.875 -10.609375 C 4.539062 -10.265625 4.296875 -9.851562 4.140625 -9.375 C 3.992188 -8.894531 3.945312 -8.414062 4 -7.9375 C 4 -7.882812 4 -7.828125 4 -7.765625 C 4.007812 -7.703125 4.03125 -7.632812 4.0625 -7.5625 C 4.25 -7.570312 4.4375 -7.582031 4.625 -7.59375 C 4.820312 -7.601562 5.007812 -7.617188 5.1875 -7.640625 Z M 4.96875 -3.90625 C 5.601562 -3.15625 6.359375 -2.566406 7.234375 -2.140625 C 8.109375 -1.722656 9.015625 -1.503906 9.953125 -1.484375 L 10.4375 2.828125 C 9.050781 2.847656 7.742188 2.566406 6.515625 1.984375 C 5.285156 1.398438 4.222656 0.617188 3.328125 -0.359375 C 2.429688 -1.335938 1.738281 -2.441406 1.25 -3.671875 C 1.851562 -3.660156 2.351562 -3.65625 2.75 -3.65625 C 3.15625 -3.664062 3.523438 -3.691406 3.859375 -3.734375 C 4.035156 -3.753906 4.210938 -3.773438 4.390625 -3.796875 C 4.578125 -3.828125 4.769531 -3.863281 4.96875 -3.90625 Z M 4.96875 -3.90625 "/></g></g><g style="fill:#d8ff00;fill-opacity:1;"><g transform="translate(93.247227, 65.522312)"><path style="stroke:none" d="M 8.3125 -11.359375 C 9.289062 -11.460938 10.078125 -11.257812 10.671875 -10.75 C 11.265625 -10.25 11.679688 -9.519531 11.921875 -8.5625 C 12.171875 -7.601562 12.242188 -6.503906 12.140625 -5.265625 C 12.035156 -4.023438 11.78125 -2.726562 11.375 -1.375 C 10.96875 -0.03125 10.414062 1.296875 9.71875 2.609375 L 5.171875 3.15625 C 5.546875 2.507812 5.898438 1.785156 6.234375 0.984375 C 6.566406 0.191406 6.867188 -0.601562 7.140625 -1.40625 C 7.421875 -2.21875 7.640625 -2.992188 7.796875 -3.734375 C 7.960938 -4.484375 8.039062 -5.148438 8.03125 -5.734375 C 8.03125 -6.316406 7.921875 -6.765625 7.703125 -7.078125 C 7.492188 -7.390625 7.144531 -7.519531 6.65625 -7.46875 C 5.789062 -7.375 5.128906 -6.972656 4.671875 -6.265625 C 4.210938 -5.566406 4.019531 -4.738281 4.09375 -3.78125 C 4.207031 -3.34375 4.335938 -2.894531 4.484375 -2.4375 C 4.640625 -1.988281 4.816406 -1.535156 5.015625 -1.078125 L 1.578125 -0.703125 C 0.742188 -2.640625 0.164062 -4.441406 -0.15625 -6.109375 C -0.488281 -7.785156 -0.539062 -9.484375 -0.3125 -11.203125 L 4.1875 -11.703125 C 4.039062 -11.210938 3.921875 -10.710938 3.828125 -10.203125 C 3.742188 -9.691406 3.675781 -9.171875 3.625 -8.640625 C 4.050781 -9.359375 4.640625 -9.960938 5.390625 -10.453125 C 6.148438 -10.953125 7.125 -11.253906 8.3125 -11.359375 Z M 8.3125 -11.359375 "/></g></g><g style="fill:#d8ff00;fill-opacity:1;"><g transform="translate(107.049687, 63.996957)"><path style="stroke:none" d="M 6 -14.421875 C 7.238281 -14.554688 8.273438 -14.453125 9.109375 -14.109375 C 9.941406 -13.773438 10.582031 -13.28125 11.03125 -12.625 C 11.488281 -11.976562 11.765625 -11.226562 11.859375 -10.375 C 11.960938 -9.394531 11.820312 -8.546875 11.4375 -7.828125 C 11.0625 -7.117188 10.492188 -6.523438 9.734375 -6.046875 C 8.984375 -5.566406 8.117188 -5.179688 7.140625 -4.890625 C 6.171875 -4.609375 5.148438 -4.410156 4.078125 -4.296875 C 3.390625 -4.210938 2.675781 -4.160156 1.9375 -4.140625 C 1.207031 -4.117188 0.484375 -4.125 -0.234375 -4.15625 L -0.65625 -7.953125 C -0.4375 -7.910156 -0.222656 -7.875 -0.015625 -7.84375 C 0.191406 -7.8125 0.398438 -7.785156 0.609375 -7.765625 C 0.554688 -8.929688 0.753906 -9.992188 1.203125 -10.953125 C 1.648438 -11.910156 2.285156 -12.695312 3.109375 -13.3125 C 3.929688 -13.925781 4.894531 -14.296875 6 -14.421875 Z M 5.1875 -7.640625 C 5.769531 -7.703125 6.296875 -7.820312 6.765625 -8 C 7.242188 -8.175781 7.617188 -8.414062 7.890625 -8.71875 C 8.160156 -9.03125 8.269531 -9.414062 8.21875 -9.875 C 8.175781 -10.320312 7.945312 -10.671875 7.53125 -10.921875 C 7.113281 -11.171875 6.648438 -11.269531 6.140625 -11.21875 C 5.640625 -11.15625 5.21875 -10.953125 4.875 -10.609375 C 4.539062 -10.265625 4.296875 -9.851562 4.140625 -9.375 C 3.992188 -8.894531 3.945312 -8.414062 4 -7.9375 C 4 -7.882812 4 -7.828125 4 -7.765625 C 4.007812 -7.703125 4.03125 -7.632812 4.0625 -7.5625 C 4.25 -7.570312 4.4375 -7.582031 4.625 -7.59375 C 4.820312 -7.601562 5.007812 -7.617188 5.1875 -7.640625 Z M 4.96875 -3.90625 C 5.601562 -3.15625 6.359375 -2.566406 7.234375 -2.140625 C 8.109375 -1.722656 9.015625 -1.503906 9.953125 -1.484375 L 10.4375 2.828125 C 9.050781 2.847656 7.742188 2.566406 6.515625 1.984375 C 5.285156 1.398438 4.222656 0.617188 3.328125 -0.359375 C 2.429688 -1.335938 1.738281 -2.441406 1.25 -3.671875 C 1.851562 -3.660156 2.351562 -3.65625 2.75 -3.65625 C 3.15625 -3.664062 3.523438 -3.691406 3.859375 -3.734375 C 4.035156 -3.753906 4.210938 -3.773438 4.390625 -3.796875 C 4.578125 -3.828125 4.769531 -3.863281 4.96875 -3.90625 Z M 4.96875 -3.90625 "/></g></g></g></svg>